<svg width="415" height="213" viewBox="0 0 415 213" fill="none" xmlns="http://www.w3.org/2000/svg">
<g filter="url(#filter0_dddd_8015_85850)">
<rect x="33.2612" y="19.7774" width="356" height="143" rx="24" transform="rotate(3 33.2612 19.7774)" fill="white" fill-opacity="0.72" shape-rendering="crispEdges"/>
<path d="M56.3188 50.1664L56.388 48.8458L64.2571 49.2582L64.1879 50.5788L61.0154 50.4126L60.5518 59.2598L59.0226 59.1797L59.4863 50.3324L56.3188 50.1664ZM67.4423 59.7752C66.7273 59.7378 66.112 59.5412 65.5963 59.1856C65.0806 58.83 64.6909 58.3499 64.4272 57.7453C64.1635 57.1408 64.0523 56.4446 64.0936 55.6568C64.135 54.8658 64.3186 54.1817 64.6442 53.6047C64.9698 53.0277 65.4077 52.5893 65.9577 52.2896C66.5078 51.9898 67.1403 51.8587 67.8552 51.8961C68.5701 51.9336 69.1854 52.1301 69.7012 52.4857C70.2169 52.8414 70.6065 53.3231 70.87 53.931C71.1335 54.5389 71.2446 55.2384 71.2031 56.0294C71.1618 56.8172 70.9785 57.4979 70.653 58.0716C70.3276 58.6453 69.8898 59.0821 69.3397 59.3818C68.7897 59.6816 68.1572 59.8127 67.4423 59.7752ZM67.5125 58.5293C67.9759 58.5536 68.3663 58.4513 68.6836 58.2223C69.001 57.9933 69.2431 57.6791 69.4101 57.2796C69.5804 56.8803 69.6783 56.4358 69.704 55.9459C69.7295 55.4593 69.6785 55.0086 69.5509 54.5937C69.4267 54.1756 69.2189 53.8345 68.9274 53.5703C68.6359 53.3061 68.2585 53.1619 67.7951 53.1376C67.3284 53.1131 66.9347 53.217 66.6138 53.4491C66.2963 53.6814 66.0523 53.9988 65.8819 54.4014C65.7149 54.8009 65.6187 55.2439 65.5932 55.7305C65.5675 56.2203 65.6168 56.6726 65.7411 57.0874C65.8687 57.5023 66.0784 57.8402 66.37 58.1011C66.665 58.3621 67.0459 58.5049 67.5125 58.5293ZM79.7729 60.2671L76.4813 60.0946L77.0141 49.9268L80.41 50.1047C81.4063 50.1569 82.2512 50.4053 82.9448 50.8499C83.6386 51.2912 84.1559 51.9008 84.4968 52.6787C84.8412 53.4535 84.9858 54.3688 84.9304 55.4246C84.8749 56.4838 84.6336 57.3838 84.2065 58.1248C83.7826 58.8659 83.1959 59.4226 82.4462 59.7949C81.6967 60.1638 80.8056 60.3213 79.7729 60.2671ZM78.0856 58.8345L79.7588 58.9222C80.5333 58.9628 81.1847 58.8509 81.713 58.5865C82.2414 58.3188 82.6477 57.9137 82.9317 57.371C83.2158 56.8249 83.379 56.1498 83.4211 55.3455C83.4629 54.5478 83.371 53.8643 83.1453 53.2949C82.9229 52.7256 82.5693 52.2839 82.0846 51.9698C81.5999 51.6556 80.9869 51.4791 80.2455 51.4403L78.478 51.3477L78.0856 58.8345ZM89.6559 60.9394C88.941 60.9019 88.3257 60.7054 87.81 60.3498C87.2942 59.9942 86.9045 59.5141 86.6408 58.9095C86.3771 58.3049 86.2659 57.6088 86.3072 56.821C86.3487 56.03 86.5322 55.3459 86.8578 54.7689C87.1835 54.1919 87.6213 53.7535 88.1714 53.4537C88.7214 53.154 89.3539 53.0228 90.0689 53.0603C90.7838 53.0978 91.3991 53.2943 91.9148 53.6499C92.4305 54.0055 92.8201 54.4873 93.0837 55.0952C93.3472 55.7031 93.4582 56.4026 93.4168 57.1936C93.3755 57.9814 93.1921 58.6621 92.8667 59.2358C92.5412 59.8095 92.1035 60.2462 91.5534 60.546C91.0033 60.8457 90.3709 60.9769 89.6559 60.9394ZM89.7262 59.6935C90.1896 59.7178 90.5799 59.6155 90.8973 59.3865C91.2146 59.1575 91.4568 58.8433 91.6237 58.4438C91.794 58.0445 91.892 57.5999 91.9177 57.1101C91.9432 56.6235 91.8921 56.1728 91.7645 55.7579C91.6404 55.3398 91.4326 54.9987 91.1411 54.7345C90.8496 54.4703 90.4721 54.3261 90.0088 54.3018C89.5421 54.2773 89.1483 54.3811 88.8275 54.6132C88.51 54.8455 88.266 55.163 88.0955 55.5656C87.9286 55.9651 87.8323 56.4081 87.8068 56.8946C87.7812 57.3845 87.8305 57.8368 87.9548 58.2515C88.0824 58.6664 88.292 59.0043 88.5837 59.2652C88.8787 59.5263 89.2595 59.6691 89.7262 59.6935ZM98.6949 61.2588L99.2278 51.0909L100.762 51.1713L100.298 60.0186L104.906 60.26L104.836 61.5807L98.6949 61.2588ZM106.467 61.6661L106.867 54.0402L108.351 54.118L107.952 61.7439L106.467 61.6661ZM107.678 52.9029C107.42 52.8893 107.203 52.7917 107.027 52.6098C106.854 52.4249 106.774 52.2116 106.786 51.97C106.799 51.725 106.901 51.5213 107.092 51.3587C107.287 51.193 107.513 51.1169 107.771 51.1304C108.029 51.144 108.245 51.2432 108.418 51.4282C108.594 51.61 108.676 51.8234 108.663 52.0683C108.65 52.3099 108.547 52.5136 108.352 52.6793C108.161 52.8419 107.936 52.9164 107.678 52.9029ZM115.965 56.384L114.607 56.5518C114.56 56.3767 114.479 56.2082 114.365 56.0462C114.254 55.8844 114.099 55.7485 113.899 55.6384C113.699 55.5284 113.445 55.4653 113.137 55.4491C112.716 55.4271 112.361 55.5031 112.069 55.677C111.778 55.8476 111.625 56.0802 111.61 56.3747C111.596 56.6296 111.68 56.8398 111.86 57.0052C112.041 57.1707 112.339 57.314 112.754 57.4354L113.951 57.7769C114.644 57.9758 115.154 58.2531 115.48 58.6088C115.807 58.9644 115.956 59.412 115.928 59.9515C115.904 60.4083 115.75 60.8084 115.467 61.152C115.187 61.4925 114.806 61.7513 114.326 61.9286C113.848 62.1061 113.302 62.1786 112.686 62.1464C111.832 62.1016 111.145 61.8831 110.625 61.4907C110.104 61.095 109.801 60.5564 109.714 59.8748L111.16 59.7315C111.23 60.1102 111.399 60.4028 111.667 60.6094C111.935 60.8126 112.292 60.9259 112.739 60.9494C113.226 60.9749 113.62 60.8943 113.922 60.7076C114.224 60.5177 114.382 60.2754 114.398 59.9809C114.41 59.7426 114.331 59.5376 114.161 59.3661C113.994 59.1947 113.731 59.0581 113.371 58.9563L112.095 58.6056C111.392 58.4061 110.879 58.1204 110.557 57.7484C110.238 57.3765 110.093 56.9192 110.121 56.3764C110.145 55.9262 110.291 55.539 110.56 55.2145C110.83 54.8901 111.191 54.6452 111.644 54.4798C112.098 54.3111 112.611 54.2417 113.184 54.2717C114.008 54.3149 114.647 54.5276 115.102 54.9099C115.556 55.2889 115.844 55.7802 115.965 56.384ZM121.404 54.8021L121.341 55.9936L117.176 55.7753L117.238 54.5838L121.404 54.8021ZM118.451 52.8153L119.936 52.8931L119.558 60.1069C119.542 60.3949 119.574 60.6139 119.653 60.764C119.731 60.9109 119.837 61.0143 119.97 61.0744C120.106 61.1313 120.256 61.1641 120.418 61.1726C120.537 61.1788 120.642 61.176 120.732 61.1641C120.822 61.1523 120.892 61.1427 120.942 61.1353L121.146 62.3757C121.058 62.4043 120.934 62.431 120.774 62.4557C120.613 62.4838 120.413 62.4933 120.175 62.4841C119.784 62.4702 119.423 62.3816 119.093 62.2183C118.763 62.055 118.502 61.8156 118.31 61.5002C118.117 61.1847 118.033 60.797 118.057 60.3369L118.451 52.8153Z" fill="#050505" fill-opacity="0.56"/>
<g clip-path="url(#clip0_8015_85850)">
<path d="M61.0737 138.729C65.6697 138.97 69.5908 135.44 69.8317 130.844C70.0726 126.248 66.542 122.326 61.9459 122.086C57.3499 121.845 53.4288 125.375 53.1879 129.971C52.947 134.567 56.4776 138.489 61.0737 138.729Z" stroke="#050505" stroke-opacity="0.56" stroke-width="2" stroke-linecap="round" stroke-linejoin="round"/>
</g>
<path d="M86.744 137.237L84.1301 125.448L85.9742 125.545L87.7665 134.662L87.8743 134.668L90.7006 125.792L92.5277 125.888L94.4105 135.016L94.5183 135.022L97.2485 126.136L99.0982 126.233L95.2607 137.684L93.4961 137.591L91.5067 128.759L91.4159 128.754L88.5143 137.33L86.744 137.237ZM102.755 138.253C101.938 138.21 101.235 137.986 100.646 137.579C100.056 137.173 99.6109 136.624 99.3096 135.933C99.0082 135.242 98.8811 134.446 98.9283 133.546C98.9756 132.642 99.1854 131.86 99.5576 131.201C99.9297 130.541 100.43 130.04 101.059 129.698C101.687 129.355 102.41 129.205 103.227 129.248C104.044 129.291 104.748 129.516 105.337 129.922C105.926 130.329 106.372 130.879 106.673 131.574C106.974 132.269 107.101 133.068 107.053 133.972C107.006 134.872 106.797 135.65 106.425 136.306C106.053 136.962 105.553 137.461 104.924 137.803C104.295 138.146 103.572 138.296 102.755 138.253ZM102.836 136.829C103.365 136.857 103.811 136.74 104.174 136.478C104.537 136.217 104.813 135.857 105.004 135.401C105.199 134.944 105.311 134.436 105.34 133.877C105.369 133.321 105.311 132.805 105.165 132.331C105.023 131.853 104.786 131.464 104.453 131.162C104.12 130.86 103.688 130.695 103.159 130.667C102.625 130.639 102.175 130.758 101.809 131.023C101.446 131.289 101.167 131.651 100.972 132.111C100.781 132.568 100.671 133.074 100.642 133.63C100.613 134.19 100.669 134.707 100.811 135.181C100.957 135.655 101.197 136.041 101.53 136.34C101.867 136.638 102.302 136.801 102.836 136.829ZM108.721 138.389L109.178 129.674L110.817 129.76L110.745 131.144L110.836 131.149C111.019 130.688 111.318 130.334 111.733 130.087C112.152 129.836 112.617 129.723 113.128 129.75C113.234 129.756 113.358 129.766 113.502 129.781C113.649 129.796 113.764 129.812 113.846 129.828L113.761 131.45C113.694 131.428 113.574 131.401 113.402 131.369C113.229 131.333 113.056 131.311 112.882 131.302C112.481 131.281 112.119 131.347 111.796 131.501C111.477 131.651 111.219 131.871 111.022 132.16C110.825 132.446 110.716 132.778 110.696 133.156L110.417 138.478L108.721 138.389ZM116.568 135.836L116.666 133.765L116.961 133.78L120.626 130.274L122.658 130.38L118.477 134.372L118.211 134.358L116.568 135.836ZM114.853 138.711L115.462 127.09L117.159 127.179L116.55 138.8L114.853 138.711ZM120.357 138.999L117.453 134.693L118.684 133.569L122.439 139.108L120.357 138.999ZM134.282 133.903C134.217 135.143 133.934 136.198 133.433 137.067C132.933 137.932 132.275 138.584 131.459 139.023C130.647 139.459 129.74 139.65 128.738 139.598C127.731 139.545 126.846 139.259 126.08 138.741C125.318 138.22 124.734 137.501 124.327 136.584C123.92 135.668 123.749 134.591 123.813 133.354C123.878 132.113 124.161 131.06 124.662 130.195C125.162 129.326 125.819 128.674 126.63 128.239C127.446 127.8 128.357 127.607 129.363 127.659C130.366 127.712 131.248 127.999 132.009 128.521C132.775 129.039 133.361 129.756 133.768 130.672C134.176 131.585 134.347 132.662 134.282 133.903ZM132.546 133.812C132.595 132.866 132.484 132.062 132.211 131.399C131.943 130.732 131.552 130.219 131.04 129.858C130.532 129.494 129.945 129.294 129.279 129.259C128.61 129.224 128.003 129.361 127.46 129.671C126.917 129.976 126.475 130.446 126.134 131.08C125.798 131.711 125.605 132.5 125.555 133.445C125.506 134.391 125.615 135.197 125.884 135.864C126.156 136.526 126.547 137.04 127.055 137.404C127.563 137.765 128.152 137.962 128.822 137.997C129.487 138.032 130.092 137.897 130.635 137.592C131.182 137.283 131.624 136.813 131.961 136.182C132.301 135.547 132.496 134.757 132.546 133.812ZM142.95 131.592C142.918 131.051 142.69 130.622 142.267 130.304C141.844 129.982 141.299 129.804 140.633 129.769C140.157 129.744 139.74 129.798 139.385 129.931C139.029 130.061 138.748 130.251 138.541 130.502C138.338 130.749 138.229 131.037 138.211 131.366C138.197 131.642 138.249 131.884 138.367 132.091C138.489 132.299 138.652 132.476 138.857 132.623C139.065 132.767 139.29 132.891 139.531 132.994C139.773 133.094 140.005 133.178 140.229 133.247L141.349 133.602C141.715 133.712 142.088 133.855 142.47 134.03C142.851 134.206 143.202 134.429 143.521 134.7C143.841 134.971 144.093 135.299 144.278 135.684C144.466 136.069 144.547 136.523 144.519 137.045C144.485 137.703 144.284 138.279 143.917 138.772C143.553 139.265 143.042 139.642 142.384 139.903C141.729 140.165 140.948 140.272 140.04 140.224C139.17 140.178 138.424 140.001 137.803 139.691C137.182 139.382 136.705 138.964 136.373 138.439C136.04 137.909 135.873 137.294 135.872 136.592L137.631 136.684C137.643 137.106 137.761 137.463 137.985 137.755C138.212 138.044 138.51 138.266 138.877 138.422C139.248 138.574 139.659 138.662 140.109 138.686C140.605 138.712 141.049 138.657 141.443 138.522C141.841 138.384 142.159 138.181 142.397 137.912C142.635 137.64 142.764 137.315 142.784 136.937C142.802 136.593 142.718 136.306 142.533 136.076C142.352 135.847 142.098 135.651 141.773 135.49C141.451 135.329 141.086 135.183 140.675 135.051L139.322 134.605C138.404 134.303 137.686 133.891 137.167 133.371C136.652 132.851 136.416 132.186 136.458 131.377C136.493 130.707 136.706 130.132 137.095 129.652C137.484 129.172 137.996 128.81 138.631 128.566C139.266 128.319 139.973 128.215 140.752 128.256C141.539 128.298 142.226 128.472 142.813 128.78C143.404 129.087 143.861 129.493 144.183 129.995C144.506 130.494 144.659 131.055 144.641 131.68L142.95 131.592ZM156.017 134.302L155.939 135.777L150.787 135.507L150.865 134.032L156.017 134.302ZM164.131 136.104L163.86 141.279L162.163 141.19L162.62 132.475L164.248 132.56L164.174 133.979L164.282 133.984C164.507 133.533 164.84 133.179 165.282 132.921C165.728 132.664 166.278 132.553 166.932 132.587C167.526 132.618 168.04 132.77 168.473 133.043C168.907 133.312 169.234 133.698 169.454 134.198C169.674 134.699 169.765 135.309 169.728 136.028L169.437 141.571L167.741 141.482L168.021 136.143C168.054 135.511 167.915 135.009 167.605 134.636C167.294 134.26 166.852 134.056 166.277 134.026C165.883 134.006 165.529 134.072 165.214 134.226C164.902 134.381 164.649 134.618 164.454 134.938C164.263 135.254 164.155 135.643 164.131 136.104ZM175.46 142.063C174.601 142.018 173.871 141.796 173.27 141.397C172.673 140.994 172.223 140.448 171.922 139.761C171.624 139.071 171.499 138.273 171.546 137.369C171.593 136.476 171.801 135.698 172.169 135.035C172.542 134.372 173.039 133.865 173.66 133.514C174.285 133.164 175.003 133.01 175.812 133.052C176.304 133.078 176.776 133.184 177.229 133.371C177.682 133.558 178.083 133.835 178.432 134.202C178.781 134.57 179.046 135.037 179.229 135.604C179.412 136.167 179.483 136.844 179.441 137.635L179.41 138.236L172.482 137.873L172.548 136.602L177.814 136.878C177.837 136.432 177.767 136.032 177.603 135.678C177.44 135.321 177.199 135.033 176.881 134.815C176.566 134.598 176.189 134.477 175.75 134.454C175.274 134.429 174.851 134.525 174.484 134.741C174.12 134.953 173.831 135.241 173.619 135.606C173.41 135.967 173.295 136.364 173.272 136.799L173.22 137.792C173.189 138.375 173.265 138.876 173.448 139.295C173.635 139.715 173.908 140.042 174.267 140.277C174.627 140.508 175.055 140.637 175.55 140.663C175.872 140.679 176.167 140.649 176.437 140.573C176.706 140.492 176.943 140.364 177.145 140.189C177.348 140.013 177.507 139.792 177.624 139.525L179.214 139.899C179.061 140.365 178.809 140.767 178.457 141.105C178.109 141.44 177.681 141.692 177.171 141.863C176.666 142.03 176.095 142.097 175.46 142.063ZM182.964 142.28L180.856 133.43L182.61 133.522L183.982 140.012L184.067 140.017L186.116 133.706L187.869 133.798L189.238 140.259L189.323 140.264L191.353 133.981L193.107 134.072L190.091 142.654L188.36 142.563L186.92 136.178L186.789 136.171L184.689 142.371L182.964 142.28ZM204.199 139.769L204.466 134.668L206.168 134.757L205.711 143.472L204.043 143.385L204.122 141.876L204.032 141.871C203.807 142.326 203.465 142.696 203.006 142.983C202.551 143.267 201.996 143.391 201.342 143.357C200.782 143.328 200.293 143.179 199.875 142.91C199.46 142.638 199.143 142.252 198.923 141.751C198.706 141.25 198.617 140.641 198.655 139.922L198.945 134.378L200.642 134.467L200.362 139.807C200.331 140.4 200.47 140.882 200.781 141.251C201.092 141.62 201.51 141.818 202.036 141.846C202.354 141.863 202.674 141.8 202.996 141.657C203.322 141.515 203.597 141.289 203.822 140.978C204.051 140.668 204.176 140.264 204.199 139.769ZM214.867 137.346L213.315 137.538C213.261 137.338 213.169 137.146 213.038 136.96C212.911 136.776 212.733 136.62 212.505 136.494C212.276 136.369 211.986 136.297 211.634 136.278C211.154 136.253 210.747 136.34 210.415 136.538C210.082 136.733 209.907 136.999 209.889 137.336C209.874 137.627 209.969 137.867 210.176 138.056C210.382 138.246 210.722 138.409 211.197 138.548L212.565 138.938C213.357 139.166 213.939 139.483 214.313 139.889C214.686 140.296 214.856 140.807 214.824 141.424C214.797 141.946 214.621 142.403 214.297 142.796C213.977 143.185 213.542 143.481 212.993 143.683C212.448 143.886 211.823 143.969 211.119 143.932C210.143 143.881 209.358 143.631 208.763 143.183C208.169 142.731 207.822 142.115 207.722 141.336L209.375 141.172C209.455 141.605 209.648 141.939 209.954 142.176C210.261 142.408 210.669 142.537 211.18 142.564C211.736 142.593 212.186 142.501 212.531 142.288C212.876 142.071 213.058 141.794 213.076 141.457C213.09 141.185 213 140.951 212.805 140.755C212.614 140.559 212.313 140.403 211.902 140.286L210.444 139.886C209.64 139.658 209.054 139.331 208.686 138.906C208.321 138.481 208.155 137.958 208.188 137.338C208.215 136.823 208.382 136.381 208.69 136.01C208.998 135.639 209.41 135.359 209.929 135.17C210.447 134.977 211.033 134.898 211.688 134.932C212.63 134.982 213.36 135.225 213.88 135.662C214.4 136.095 214.729 136.656 214.867 137.346ZM220.304 144.413C219.446 144.368 218.716 144.146 218.115 143.747C217.517 143.344 217.068 142.799 216.766 142.111C216.469 141.421 216.344 140.623 216.391 139.719C216.438 138.827 216.646 138.048 217.014 137.385C217.387 136.722 217.883 136.215 218.505 135.864C219.13 135.514 219.848 135.36 220.657 135.403C221.149 135.428 221.621 135.535 222.074 135.721C222.527 135.908 222.928 136.185 223.277 136.553C223.625 136.92 223.891 137.387 224.074 137.954C224.257 138.518 224.327 139.194 224.286 139.985L224.254 140.587L217.326 140.223L217.393 138.952L222.658 139.228C222.682 138.782 222.612 138.382 222.448 138.028C222.285 137.671 222.044 137.383 221.725 137.165C221.411 136.948 221.034 136.828 220.595 136.805C220.118 136.78 219.696 136.875 219.328 137.091C218.964 137.303 218.676 137.592 218.464 137.956C218.255 138.317 218.139 138.715 218.117 139.15L218.064 140.143C218.034 140.725 218.11 141.226 218.293 141.645C218.48 142.065 218.753 142.392 219.112 142.627C219.472 142.858 219.899 142.987 220.395 143.013C220.716 143.03 221.012 143 221.281 142.923C221.551 142.842 221.787 142.714 221.99 142.539C222.193 142.364 222.352 142.142 222.468 141.875L224.059 142.249C223.906 142.715 223.653 143.117 223.302 143.455C222.954 143.79 222.526 144.042 222.016 144.213C221.51 144.38 220.94 144.447 220.304 144.413ZM225.935 144.532L226.392 135.817L228.032 135.903L227.959 137.287L228.05 137.292C228.233 136.831 228.533 136.477 228.948 136.23C229.367 135.978 229.831 135.866 230.342 135.893C230.448 135.899 230.573 135.909 230.716 135.924C230.863 135.939 230.978 135.955 231.061 135.97L230.976 137.593C230.908 137.571 230.788 137.544 230.616 137.512C230.443 137.476 230.27 137.454 230.096 137.445C229.695 137.424 229.333 137.49 229.01 137.644C228.691 137.794 228.433 138.014 228.236 138.303C228.039 138.589 227.93 138.921 227.91 139.299L227.632 144.621L225.935 144.532ZM240.9 136.577L240.829 137.939L235.904 137.681L235.975 136.319L240.9 136.577ZM236.869 145.105L237.379 135.38C237.407 134.835 237.55 134.389 237.807 134.043C238.064 133.692 238.394 133.438 238.797 133.281C239.2 133.12 239.632 133.051 240.094 133.076C240.434 133.093 240.724 133.137 240.963 133.207C241.202 133.272 241.38 133.331 241.494 133.382L241.025 134.735C240.947 134.708 240.846 134.676 240.723 134.639C240.6 134.599 240.45 134.574 240.272 134.564C239.86 134.543 239.559 134.629 239.371 134.824C239.186 135.019 239.083 135.31 239.063 135.696L238.565 145.194L236.869 145.105ZM244.5 133.853L243.891 145.473L242.194 145.384L242.803 133.764L244.5 133.853ZM249.835 145.961C249.018 145.918 248.314 145.694 247.725 145.287C247.136 144.881 246.69 144.332 246.389 143.641C246.088 142.95 245.96 142.155 246.008 141.254C246.055 140.35 246.265 139.568 246.637 138.909C247.009 138.25 247.509 137.749 248.138 137.406C248.767 137.063 249.49 136.914 250.307 136.956C251.124 136.999 251.827 137.224 252.416 137.63C253.006 138.037 253.451 138.587 253.752 139.282C254.053 139.977 254.18 140.776 254.133 141.68C254.086 142.58 253.876 143.358 253.504 144.014C253.132 144.67 252.632 145.169 252.003 145.511C251.375 145.854 250.652 146.004 249.835 145.961ZM249.915 144.537C250.445 144.565 250.891 144.448 251.253 144.186C251.616 143.925 251.893 143.565 252.084 143.109C252.278 142.653 252.39 142.145 252.42 141.585C252.449 141.029 252.39 140.513 252.245 140.039C252.103 139.562 251.865 139.172 251.532 138.87C251.199 138.568 250.768 138.403 250.238 138.375C249.705 138.347 249.255 138.466 248.888 138.731C248.525 138.997 248.246 139.359 248.051 139.82C247.861 140.276 247.751 140.782 247.722 141.338C247.692 141.898 247.749 142.415 247.891 142.889C248.036 143.363 248.276 143.75 248.609 144.048C248.946 144.346 249.382 144.509 249.915 144.537ZM257.424 146.182L255.317 137.333L257.07 137.425L258.442 143.914L258.527 143.919L260.576 137.608L262.33 137.7L263.698 144.161L263.783 144.166L265.814 137.883L267.567 137.975L264.551 146.556L262.82 146.465L261.38 140.08L261.249 140.073L259.149 146.273L257.424 146.182Z" fill="#050505" fill-opacity="0.88"/>
<path fill-rule="evenodd" clip-rule="evenodd" d="M63.8738 85.3027C58.8182 85.0377 54.5049 88.9213 54.24 93.977C53.975 99.0327 57.8587 103.346 62.9143 103.611C67.97 103.876 72.2832 99.9922 72.5482 94.9365C72.8131 89.8808 68.9295 85.5676 63.8738 85.3027ZM67.8274 92.7757C68.1694 92.4678 68.197 91.9409 67.8891 91.5988C67.5811 91.2568 67.0542 91.2292 66.7122 91.5372L62.0766 95.711L60.2685 93.7029C59.9606 93.3609 59.4336 93.3332 59.0916 93.6412C58.7496 93.9492 58.722 94.4761 59.0299 94.8181L61.3957 97.4455C61.7036 97.7875 62.2305 97.8152 62.5726 97.5072L67.8274 92.7757Z" fill="#1119FE"/>
<path d="M96.3891 94.3311L94.6188 94.2384C94.5705 93.8565 94.4612 93.517 94.2909 93.2198C94.1207 92.9226 93.9065 92.6667 93.6484 92.4522C93.3904 92.2376 93.0976 92.0705 92.77 91.951C92.4463 91.8316 92.0991 91.7622 91.7284 91.7428C91.0588 91.7077 90.4505 91.8446 89.9032 92.1535C89.3598 92.4626 88.9178 92.9344 88.5773 93.569C88.2406 94.2037 88.0477 94.9902 87.9985 95.9283C87.949 96.874 88.0584 97.68 88.327 98.3465C88.5993 99.0132 88.9915 99.5269 89.5036 99.8875C90.0157 100.248 90.6028 100.446 91.2648 100.48C91.6317 100.5 91.9823 100.469 92.3165 100.388C92.6547 100.303 92.9633 100.169 93.2422 99.9867C93.521 99.8041 93.7606 99.5758 93.9608 99.3018C94.165 99.0242 94.3128 98.7019 94.4041 98.335L96.1741 98.4335C96.0496 98.9997 95.8386 99.5159 95.541 99.982C95.2475 100.445 94.8797 100.839 94.4378 101.165C93.9999 101.487 93.5056 101.728 92.9547 101.889C92.4039 102.05 91.8088 102.113 91.1695 102.08C90.1634 102.027 89.2793 101.742 88.5175 101.224C87.7559 100.702 87.1715 99.9834 86.7644 99.0669C86.361 98.1506 86.1918 97.0739 86.2566 95.837C86.3216 94.5963 86.6044 93.5433 87.1049 92.6782C87.6056 91.8093 88.2618 91.1571 89.0736 90.7217C89.8856 90.2826 90.7928 90.0893 91.7952 90.1418C92.4118 90.1741 92.9821 90.2931 93.5061 90.4989C94.0342 90.701 94.503 90.9835 94.9126 91.3464C95.3224 91.7054 95.6544 92.1363 95.9088 92.6389C96.1633 93.1378 96.3234 93.7018 96.3891 94.3311ZM97.9399 102.275L98.3967 93.5601L100.036 93.6461L99.9639 95.0306L100.055 95.0353C100.238 94.5746 100.537 94.2204 100.952 93.9729C101.371 93.7217 101.836 93.6096 102.347 93.6363C102.453 93.6419 102.577 93.6522 102.721 93.6673C102.868 93.6826 102.983 93.6981 103.065 93.7138L102.98 95.3366C102.913 95.3141 102.793 95.2869 102.621 95.2551C102.448 95.2195 102.275 95.1972 102.101 95.188C101.7 95.167 101.338 95.2334 101.015 95.3872C100.696 95.5374 100.438 95.7571 100.241 96.0464C100.044 96.332 99.9352 96.6639 99.9154 97.0421L99.6364 102.364L97.9399 102.275ZM107.507 102.953C106.648 102.908 105.918 102.686 105.317 102.287C104.72 101.884 104.271 101.338 103.969 100.651C103.672 99.9605 103.547 99.1631 103.594 98.259C103.641 97.3663 103.848 96.5883 104.217 95.9248C104.589 95.2616 105.086 94.7547 105.708 94.4042C106.333 94.0538 107.05 93.8999 107.86 93.9423C108.352 93.9681 108.824 94.0744 109.277 94.2612C109.73 94.4481 110.131 94.7251 110.479 95.0923C110.828 95.4596 111.094 95.9268 111.276 96.4939C111.459 97.0573 111.53 97.7343 111.489 98.5249L111.457 99.1263L104.529 98.7632L104.596 97.4922L109.861 97.7682C109.885 97.3218 109.814 96.9218 109.651 96.568C109.488 96.2105 109.247 95.9229 108.928 95.7052C108.613 95.4876 108.236 95.3674 107.798 95.3444C107.321 95.3194 106.899 95.4149 106.531 95.6307C106.167 95.8431 105.879 96.1314 105.666 96.4958C105.458 96.8566 105.342 97.2545 105.319 97.6895L105.267 98.6824C105.237 99.265 105.313 99.7658 105.496 100.185C105.682 100.605 105.955 100.932 106.315 101.167C106.674 101.398 107.102 101.527 107.598 101.553C107.919 101.569 108.215 101.539 108.484 101.463C108.754 101.382 108.99 101.254 109.193 101.079C109.395 100.903 109.555 100.682 109.671 100.415L111.262 100.789C111.108 101.255 110.856 101.657 110.504 101.995C110.157 102.33 109.728 102.582 109.219 102.753C108.713 102.92 108.143 102.987 107.507 102.953ZM115.664 103.398C115.112 103.369 114.618 103.241 114.182 103.013C113.747 102.781 113.409 102.462 113.168 102.055C112.932 101.648 112.828 101.159 112.858 100.588C112.884 100.096 113 99.6965 113.206 99.3886C113.411 99.0808 113.68 98.8426 114.011 98.6741C114.342 98.5056 114.709 98.3845 115.111 98.3108C115.513 98.237 115.922 98.1863 116.337 98.1588C116.862 98.1256 117.288 98.0986 117.616 98.0779C117.943 98.0533 118.183 97.9995 118.335 97.9164C118.487 97.8334 118.569 97.6897 118.58 97.4855L118.582 97.4457C118.608 96.9502 118.488 96.5589 118.222 96.2719C117.96 95.9851 117.555 95.8273 117.007 95.7986C116.436 95.7686 115.979 95.8718 115.636 96.1079C115.298 96.3406 115.058 96.6068 114.917 96.9066L113.342 96.4599C113.559 95.9403 113.858 95.5273 114.238 95.221C114.622 94.9112 115.056 94.695 115.54 94.5724C116.025 94.4461 116.53 94.3967 117.056 94.4243C117.404 94.4425 117.771 94.5034 118.156 94.6071C118.545 94.7071 118.904 94.8739 119.233 95.1073C119.566 95.341 119.832 95.664 120.03 96.0765C120.229 96.4852 120.312 97.0073 120.278 97.6428L119.975 103.43L118.318 103.343L118.381 102.152L118.313 102.148C118.191 102.362 118.016 102.569 117.785 102.769C117.555 102.97 117.263 103.131 116.912 103.253C116.56 103.375 116.144 103.423 115.664 103.398ZM116.104 102.055C116.573 102.08 116.979 102.008 117.322 101.84C117.668 101.673 117.936 101.444 118.126 101.154C118.319 100.861 118.425 100.542 118.443 100.198L118.502 99.0745C118.438 99.1318 118.318 99.1824 118.141 99.2263C117.969 99.2665 117.771 99.2998 117.55 99.3261C117.329 99.3487 117.114 99.3696 116.904 99.389C116.694 99.4046 116.519 99.4182 116.378 99.4297C116.047 99.4541 115.743 99.5083 115.465 99.5924C115.191 99.6767 114.968 99.8072 114.796 99.984C114.628 100.157 114.535 100.395 114.52 100.698C114.498 101.118 114.636 101.444 114.935 101.675C115.234 101.904 115.624 102.03 116.104 102.055ZM126.76 95.0466L126.688 96.4084L121.928 96.1589L121.999 94.7971L126.76 95.0466ZM123.385 92.776L125.082 92.8649L124.65 101.109C124.633 101.438 124.669 101.689 124.758 101.86C124.848 102.028 124.969 102.146 125.121 102.215C125.277 102.28 125.447 102.317 125.633 102.327C125.769 102.334 125.889 102.331 125.992 102.318C126.095 102.304 126.175 102.293 126.232 102.285L126.465 103.702C126.365 103.735 126.223 103.765 126.04 103.794C125.856 103.826 125.628 103.837 125.355 103.826C124.908 103.81 124.496 103.709 124.119 103.522C123.742 103.336 123.444 103.062 123.224 102.702C123.003 102.341 122.907 101.898 122.935 101.372L123.385 92.776ZM131.833 104.228C130.974 104.183 130.244 103.961 129.643 103.561C129.046 103.158 128.597 102.613 128.295 101.926C127.998 101.235 127.873 100.438 127.92 99.5339C127.967 98.6412 128.174 97.8631 128.543 97.1997C128.915 96.5364 129.412 96.0296 130.034 95.679C130.659 95.3287 131.376 95.1747 132.186 95.2172C132.678 95.2429 133.15 95.3492 133.603 95.5361C134.056 95.7229 134.457 96 134.805 96.3672C135.154 96.7344 135.42 97.2016 135.602 97.7688C135.785 98.3322 135.856 99.0091 135.815 99.7997L135.783 100.401L128.855 100.038L128.922 98.7671L134.187 99.0431C134.211 98.5967 134.14 98.1967 133.977 97.8429C133.814 97.4854 133.573 97.1978 133.254 96.98C132.939 96.7625 132.562 96.6422 132.124 96.6193C131.647 96.5943 131.225 96.6897 130.857 96.9056C130.493 97.1179 130.205 97.4063 129.992 97.7706C129.784 98.1314 129.668 98.5293 129.645 98.9643L129.593 99.9573C129.563 100.54 129.639 101.041 129.822 101.46C130.008 101.879 130.281 102.207 130.641 102.442C131 102.673 131.428 102.802 131.923 102.828C132.245 102.844 132.541 102.814 132.81 102.737C133.08 102.657 133.316 102.529 133.519 102.354C133.721 102.178 133.881 101.957 133.997 101.69L135.588 102.064C135.434 102.53 135.182 102.932 134.83 103.27C134.483 103.605 134.054 103.857 133.545 104.028C133.039 104.195 132.469 104.261 131.833 104.228ZM143.66 99.4826L143.389 104.657L141.692 104.568L142.149 95.8531L143.778 95.9385L143.703 97.357L143.811 97.3626C144.036 96.9116 144.369 96.5574 144.811 96.2999C145.257 96.0426 145.807 95.931 146.462 95.9653C147.056 95.9965 147.569 96.1485 148.002 96.4216C148.436 96.6909 148.763 97.0759 148.983 97.5768C149.203 98.0776 149.295 98.6874 149.257 99.4061L148.966 104.95L147.27 104.861L147.55 99.5215C147.583 98.8898 147.444 98.3875 147.134 98.0147C146.823 97.6381 146.381 97.4347 145.806 97.4046C145.412 97.384 145.058 97.4507 144.743 97.6049C144.431 97.7593 144.178 97.9963 143.983 98.3161C143.792 98.6323 143.684 99.0211 143.66 99.4826ZM154.989 105.442C154.13 105.397 153.4 105.174 152.799 104.775C152.202 104.372 151.753 103.827 151.451 103.14C151.153 102.449 151.028 101.652 151.076 100.747C151.122 99.8547 151.33 99.0767 151.699 98.4132C152.071 97.75 152.568 97.2431 153.189 96.8926C153.815 96.5422 154.532 96.3883 155.342 96.4307C155.833 96.4565 156.306 96.5628 156.759 96.7496C157.212 96.9365 157.612 97.2135 157.961 97.5807C158.31 97.948 158.575 98.4152 158.758 98.9823C158.941 99.5457 159.012 100.223 158.97 101.013L158.939 101.615L152.011 101.252L152.077 99.9807L157.343 100.257C157.366 99.8102 157.296 99.4102 157.133 99.0565C156.969 98.6989 156.728 98.4113 156.41 98.1936C156.095 97.9761 155.718 97.8558 155.279 97.8328C154.803 97.8078 154.381 97.9033 154.013 98.1192C153.649 98.3315 153.361 98.6198 153.148 98.9842C152.939 99.345 152.824 99.7429 152.801 100.178L152.749 101.171C152.718 101.753 152.795 102.254 152.977 102.673C153.164 103.093 153.437 103.42 153.797 103.655C154.156 103.886 154.584 104.015 155.079 104.041C155.401 104.058 155.696 104.028 155.966 103.951C156.236 103.87 156.472 103.742 156.674 103.567C156.877 103.392 157.037 103.171 157.153 102.904L158.744 103.277C158.59 103.743 158.338 104.145 157.986 104.484C157.639 104.818 157.21 105.071 156.7 105.241C156.195 105.408 155.624 105.475 154.989 105.442ZM162.493 105.659L160.385 96.8088L162.139 96.9007L163.511 103.391L163.596 103.395L165.645 97.0845L167.399 97.1764L168.767 103.638L168.852 103.642L170.882 97.359L172.636 97.4509L169.62 106.032L167.889 105.941L166.449 99.5561L166.318 99.5492L164.218 105.749L162.493 105.659ZM181.271 106.813C180.568 106.776 179.949 106.564 179.416 106.176C178.886 105.784 178.482 105.245 178.203 104.559C177.928 103.869 177.815 103.053 177.865 102.112C177.914 101.17 178.113 100.372 178.462 99.7191C178.815 99.0663 179.277 98.5765 179.848 98.2499C180.419 97.9232 181.054 97.7783 181.754 97.8149C182.295 97.8433 182.725 97.9569 183.045 98.1557C183.368 98.3509 183.615 98.5724 183.784 98.8203C183.957 99.0683 184.089 99.2858 184.182 99.4727L184.284 99.478L184.51 95.1601L186.207 95.249L185.598 106.869L183.941 106.783L184.012 105.427L183.87 105.419C183.759 105.599 183.6 105.803 183.395 106.031C183.193 106.26 182.921 106.454 182.579 106.614C182.237 106.775 181.801 106.841 181.271 106.813ZM181.721 105.386C182.209 105.412 182.628 105.305 182.979 105.065C183.333 104.822 183.609 104.474 183.807 104.022C184.009 103.57 184.126 103.037 184.158 102.424C184.19 101.819 184.131 101.285 183.98 100.822C183.83 100.359 183.593 99.9918 183.27 99.7208C182.947 99.4497 182.537 99.3011 182.042 99.2752C181.531 99.2484 181.099 99.3585 180.744 99.6054C180.39 99.8524 180.114 100.2 179.916 100.649C179.722 101.098 179.609 101.609 179.579 102.184C179.549 102.767 179.608 103.295 179.758 103.77C179.908 104.244 180.145 104.626 180.472 104.917C180.802 105.203 181.218 105.36 181.721 105.386ZM191.766 107.369C190.908 107.324 190.178 107.102 189.577 106.702C188.98 106.299 188.53 105.754 188.229 105.067C187.931 104.376 187.806 103.579 187.853 102.675C187.9 101.782 188.108 101.004 188.476 100.341C188.849 99.6774 189.346 99.1705 189.967 98.82C190.592 98.4697 191.31 98.3157 192.119 98.3581C192.611 98.3839 193.083 98.4902 193.536 98.6771C193.989 98.8639 194.39 99.1409 194.739 99.5082C195.087 99.8754 195.353 100.343 195.536 100.91C195.719 101.473 195.789 102.15 195.748 102.941L195.716 103.542L188.788 103.179L188.855 101.908L194.121 102.184C194.144 101.738 194.074 101.338 193.91 100.984C193.747 100.626 193.506 100.339 193.187 100.121C192.873 99.9035 192.496 99.7832 192.057 99.7602C191.58 99.7352 191.158 99.8307 190.79 100.047C190.426 100.259 190.138 100.547 189.926 100.912C189.717 101.272 189.601 101.67 189.579 102.105L189.527 103.098C189.496 103.681 189.572 104.182 189.755 104.601C189.942 105.02 190.215 105.348 190.574 105.583C190.934 105.814 191.361 105.943 191.857 105.968C192.178 105.985 192.474 105.955 192.743 105.878C193.013 105.798 193.249 105.67 193.452 105.495C193.655 105.319 193.814 105.098 193.931 104.831L195.521 105.205C195.368 105.671 195.115 106.073 194.764 106.411C194.416 106.746 193.988 106.998 193.478 107.169C192.972 107.336 192.402 107.402 191.766 107.369ZM204.273 101.243L202.721 101.434C202.667 101.234 202.575 101.042 202.444 100.856C202.317 100.672 202.14 100.516 201.911 100.39C201.683 100.265 201.392 100.193 201.041 100.174C200.56 100.149 200.154 100.236 199.821 100.435C199.488 100.629 199.313 100.895 199.295 101.232C199.28 101.523 199.376 101.763 199.582 101.953C199.788 102.142 200.129 102.305 200.603 102.444L201.971 102.834C202.763 103.062 203.346 103.379 203.719 103.785C204.092 104.192 204.263 104.703 204.23 105.32C204.203 105.842 204.027 106.299 203.703 106.692C203.383 107.081 202.948 107.377 202.399 107.579C201.854 107.782 201.229 107.865 200.526 107.828C199.55 107.777 198.764 107.527 198.17 107.079C197.575 106.627 197.228 106.011 197.128 105.232L198.781 105.068C198.861 105.501 199.054 105.836 199.36 106.072C199.667 106.304 200.075 106.433 200.586 106.46C201.142 106.489 201.593 106.397 201.938 106.184C202.283 105.967 202.464 105.69 202.482 105.353C202.496 105.081 202.406 104.847 202.211 104.651C202.021 104.455 201.72 104.299 201.308 104.182L199.85 103.782C199.047 103.554 198.461 103.227 198.092 102.802C197.728 102.377 197.562 101.854 197.594 101.234C197.621 100.719 197.788 100.277 198.096 99.906C198.404 99.5353 198.817 99.2554 199.335 99.0663C199.853 98.8735 200.44 98.7942 201.094 98.8285C202.036 98.8779 202.767 99.121 203.286 99.5579C203.806 99.991 204.135 100.553 204.273 101.243ZM205.964 107.937L206.42 99.2214L208.117 99.3103L207.66 108.026L205.964 107.937ZM207.348 97.9216C207.052 97.9061 206.804 97.7945 206.603 97.5867C206.405 97.3753 206.314 97.1315 206.328 96.8554C206.343 96.5755 206.459 96.3426 206.678 96.1568C206.9 95.9675 207.159 95.8805 207.454 95.896C207.749 95.9114 207.995 96.0248 208.193 96.2362C208.394 96.444 208.488 96.6879 208.473 96.9678C208.458 97.2439 208.34 97.4767 208.118 97.6661C207.899 97.8519 207.643 97.937 207.348 97.9216ZM213.416 111.787C212.723 111.75 212.132 111.628 211.643 111.421C211.157 111.213 210.765 110.952 210.466 110.636C210.168 110.321 209.951 109.982 209.814 109.618L211.304 109.093C211.397 109.265 211.524 109.448 211.685 109.642C211.849 109.84 212.075 110.013 212.363 110.161C212.655 110.309 213.035 110.395 213.504 110.42C214.147 110.454 214.687 110.325 215.123 110.033C215.56 109.744 215.796 109.26 215.831 108.579L215.921 106.865L215.813 106.86C215.701 107.04 215.543 107.238 215.338 107.455C215.137 107.672 214.866 107.855 214.524 108.004C214.183 108.153 213.745 108.214 213.212 108.186C212.523 108.15 211.911 107.956 211.376 107.606C210.845 107.252 210.435 106.751 210.146 106.102C209.862 105.45 209.744 104.66 209.792 103.734C209.841 102.807 210.04 102.021 210.388 101.375C210.741 100.73 211.202 100.246 211.773 99.923C212.344 99.5964 212.979 99.4514 213.679 99.4881C214.22 99.5164 214.652 99.6301 214.975 99.8291C215.299 100.024 215.547 100.246 215.72 100.494C215.897 100.742 216.031 100.96 216.124 101.147L216.249 101.153L216.323 99.7404L217.985 99.8275L217.519 108.736C217.479 109.485 217.273 110.09 216.9 110.552C216.527 111.015 216.037 111.346 215.431 111.545C214.829 111.745 214.157 111.825 213.416 111.787ZM213.66 106.798C214.148 106.824 214.566 106.732 214.915 106.523C215.267 106.31 215.542 105.994 215.738 105.576C215.939 105.154 216.055 104.642 216.086 104.041C216.117 103.454 216.057 102.934 215.906 102.478C215.756 102.023 215.519 101.661 215.195 101.394C214.872 101.123 214.462 100.974 213.967 100.948C213.456 100.922 213.024 101.032 212.669 101.279C212.315 101.522 212.039 101.864 211.842 102.305C211.648 102.746 211.536 103.245 211.507 103.801C211.477 104.372 211.538 104.878 211.689 105.318C211.841 105.758 212.08 106.109 212.408 106.368C212.74 106.629 213.157 106.772 213.66 106.798ZM221.772 103.576L221.5 108.751L219.804 108.662L220.261 99.9468L221.889 100.032L221.815 101.451L221.923 101.456C222.147 101.005 222.481 100.651 222.923 100.394C223.369 100.136 223.919 100.025 224.573 100.059C225.167 100.09 225.681 100.242 226.114 100.515C226.547 100.785 226.874 101.17 227.095 101.67C227.315 102.171 227.406 102.781 227.369 103.5L227.078 109.043L225.381 108.954L225.661 103.615C225.694 102.983 225.556 102.481 225.245 102.108C224.935 101.732 224.492 101.528 223.917 101.498C223.524 101.478 223.17 101.544 222.854 101.699C222.543 101.853 222.29 102.09 222.094 102.41C221.903 102.726 221.796 103.115 221.772 103.576ZM238.186 100.886L238.115 102.248L233.19 101.99L233.261 100.628L238.186 100.886ZM234.155 109.414L234.665 99.6889C234.693 99.1442 234.836 98.6984 235.093 98.3515C235.351 98.0009 235.681 97.747 236.083 97.5898C236.486 97.4289 236.918 97.3605 237.38 97.3847C237.72 97.4025 238.01 97.4461 238.249 97.5156C238.489 97.5812 238.666 97.6398 238.781 97.6913L238.311 99.0436C238.233 99.0168 238.132 98.985 238.009 98.9481C237.886 98.9076 237.736 98.8826 237.558 98.8733C237.146 98.8517 236.845 98.9384 236.657 99.1333C236.472 99.3284 236.369 99.6189 236.349 100.005L235.851 109.503L234.155 109.414ZM242.799 110.044C241.982 110.001 241.278 109.776 240.689 109.37C240.1 108.963 239.654 108.415 239.353 107.724C239.051 107.033 238.924 106.237 238.972 105.337C239.019 104.433 239.229 103.651 239.601 102.992C239.973 102.332 240.473 101.831 241.102 101.488C241.731 101.146 242.453 100.996 243.271 101.039C244.088 101.082 244.791 101.306 245.38 101.713C245.97 102.119 246.415 102.67 246.716 103.364C247.017 104.059 247.144 104.859 247.097 105.763C247.05 106.663 246.84 107.441 246.468 108.097C246.096 108.752 245.596 109.251 244.967 109.594C244.339 109.937 243.616 110.086 242.799 110.044ZM242.879 108.62C243.409 108.647 243.855 108.53 244.217 108.269C244.58 108.007 244.857 107.648 245.048 107.191C245.242 106.735 245.354 106.227 245.383 105.667C245.413 105.111 245.354 104.596 245.208 104.122C245.067 103.644 244.829 103.254 244.496 102.952C244.163 102.65 243.731 102.485 243.202 102.458C242.669 102.43 242.219 102.548 241.852 102.814C241.489 103.079 241.21 103.442 241.015 103.902C240.825 104.359 240.715 104.865 240.685 105.421C240.656 105.981 240.712 106.498 240.854 106.972C241 107.446 241.24 107.832 241.573 108.13C241.91 108.429 242.346 108.592 242.879 108.62ZM248.764 110.18L249.221 101.465L250.861 101.55L250.788 102.935L250.879 102.94C251.062 102.479 251.362 102.125 251.777 101.877C252.196 101.626 252.661 101.514 253.171 101.541C253.277 101.546 253.402 101.557 253.545 101.572C253.692 101.587 253.807 101.602 253.89 101.618L253.805 103.241C253.738 103.218 253.618 103.191 253.445 103.159C253.272 103.124 253.099 103.102 252.925 103.092C252.524 103.071 252.162 103.138 251.839 103.292C251.52 103.442 251.262 103.661 251.065 103.951C250.868 104.236 250.759 104.568 250.74 104.946L250.461 110.269L248.764 110.18ZM259.261 110.73L259.87 99.1095L261.623 99.2014L261.359 104.251L267.152 104.555L267.417 99.505L269.176 99.5972L268.567 111.218L266.808 111.125L267.073 106.059L261.28 105.755L261.014 110.822L259.261 110.73ZM270.984 111.344L271.44 102.629L273.137 102.718L272.68 111.433L270.984 111.344ZM272.368 101.329C272.073 101.314 271.824 101.202 271.623 100.994C271.425 100.783 271.334 100.539 271.348 100.263C271.363 99.983 271.479 99.7502 271.698 99.5644C271.92 99.375 272.179 99.2881 272.474 99.3035C272.769 99.319 273.015 99.4324 273.213 99.6438C273.414 99.8516 273.508 100.095 273.493 100.375C273.479 100.652 273.36 100.884 273.138 101.074C272.919 101.259 272.663 101.345 272.368 101.329ZM274.963 111.553L275.419 102.838L277.059 102.923L276.987 104.308L277.077 104.313C277.261 103.852 277.56 103.498 277.975 103.25C278.394 102.999 278.859 102.887 279.37 102.914C279.476 102.919 279.6 102.93 279.744 102.945C279.891 102.96 280.006 102.975 280.088 102.991L280.003 104.614C279.936 104.591 279.816 104.564 279.643 104.532C279.471 104.497 279.297 104.475 279.123 104.465C278.722 104.444 278.36 104.511 278.038 104.665C277.719 104.815 277.461 105.034 277.263 105.324C277.066 105.609 276.958 105.941 276.938 106.319L276.659 111.642L274.963 111.553ZM284.53 112.231C283.671 112.186 282.941 111.963 282.34 111.564C281.743 111.161 281.294 110.616 280.992 109.929C280.694 109.238 280.569 108.44 280.617 107.536C280.663 106.644 280.871 105.866 281.24 105.202C281.612 104.539 282.109 104.032 282.73 103.682C283.356 103.331 284.073 103.177 284.882 103.22C285.374 103.245 285.847 103.352 286.3 103.539C286.753 103.725 287.153 104.002 287.502 104.37C287.851 104.737 288.116 105.204 288.299 105.771C288.482 106.335 288.553 107.012 288.511 107.802L288.48 108.404L281.552 108.041L281.618 106.77L286.884 107.046C286.907 106.599 286.837 106.199 286.674 105.845C286.51 105.488 286.269 105.2 285.951 104.983C285.636 104.765 285.259 104.645 284.82 104.622C284.344 104.597 283.922 104.692 283.554 104.908C283.19 105.12 282.902 105.409 282.689 105.773C282.48 106.134 282.365 106.532 282.342 106.967L282.29 107.96C282.259 108.542 282.336 109.043 282.518 109.462C282.705 109.882 282.978 110.209 283.337 110.444C283.697 110.675 284.125 110.804 284.62 110.83C284.942 110.847 285.237 110.817 285.507 110.74C285.777 110.659 286.013 110.531 286.215 110.356C286.418 110.181 286.578 109.96 286.694 109.693L288.285 110.066C288.131 110.532 287.879 110.934 287.527 111.273C287.18 111.607 286.751 111.86 286.241 112.03C285.736 112.197 285.165 112.264 284.53 112.231ZM300.695 107.075C300.63 108.316 300.347 109.371 299.847 110.24C299.346 111.105 298.688 111.757 297.872 112.196C297.06 112.631 296.153 112.823 295.151 112.77C294.145 112.717 293.259 112.432 292.493 111.914C291.732 111.392 291.147 110.673 290.74 109.757C290.333 108.84 290.162 107.764 290.227 106.527C290.292 105.286 290.574 104.233 291.075 103.368C291.576 102.499 292.232 101.847 293.044 101.411C293.859 100.972 294.77 100.779 295.777 100.832C296.779 100.885 297.661 101.172 298.423 101.693C299.188 102.211 299.775 102.929 300.182 103.845C300.589 104.758 300.76 105.835 300.695 107.075ZM298.959 106.984C299.009 106.039 298.897 105.234 298.625 104.571C298.356 103.905 297.966 103.391 297.454 103.031C296.945 102.667 296.359 102.467 295.693 102.432C295.023 102.397 294.417 102.534 293.873 102.843C293.33 103.148 292.888 103.618 292.548 104.253C292.211 104.884 292.018 105.672 291.969 106.618C291.919 107.564 292.029 108.37 292.297 109.036C292.57 109.699 292.96 110.213 293.468 110.577C293.976 110.937 294.565 111.135 295.235 111.17C295.901 111.205 296.505 111.07 297.048 110.764C297.596 110.456 298.037 109.986 298.374 109.355C298.714 108.72 298.909 107.93 298.959 106.984ZM309.364 104.764C309.331 104.224 309.103 103.795 308.68 103.477C308.257 103.155 307.712 102.977 307.047 102.942C306.57 102.917 306.154 102.971 305.798 103.104C305.442 103.233 305.161 103.423 304.954 103.674C304.752 103.921 304.642 104.21 304.625 104.539C304.61 104.815 304.662 105.057 304.78 105.264C304.902 105.471 305.065 105.649 305.27 105.796C305.479 105.94 305.703 106.063 305.945 106.167C306.186 106.267 306.419 106.351 306.643 106.42L307.762 106.774C308.128 106.884 308.502 107.027 308.883 107.203C309.265 107.378 309.615 107.602 309.935 107.872C310.254 108.143 310.506 108.471 310.691 108.857C310.879 109.242 310.96 109.696 310.933 110.218C310.898 110.876 310.697 111.451 310.33 111.944C309.967 112.437 309.456 112.814 308.797 113.076C308.142 113.337 307.361 113.444 306.453 113.397C305.583 113.351 304.838 113.174 304.217 112.864C303.596 112.555 303.119 112.137 302.786 111.611C302.453 111.082 302.287 110.466 302.285 109.764L304.044 109.857C304.056 110.278 304.174 110.635 304.398 110.928C304.625 111.217 304.923 111.439 305.29 111.595C305.662 111.747 306.072 111.835 306.523 111.858C307.018 111.884 307.463 111.83 307.857 111.695C308.255 111.557 308.573 111.353 308.81 111.085C309.048 110.813 309.177 110.488 309.197 110.11C309.215 109.765 309.132 109.478 308.947 109.249C308.765 109.019 308.512 108.824 308.186 108.663C307.865 108.502 307.499 108.355 307.089 108.224L305.735 107.777C304.818 107.475 304.1 107.064 303.581 106.544C303.066 106.024 302.829 105.359 302.872 104.549C302.907 103.88 303.119 103.305 303.508 102.825C303.898 102.344 304.41 101.982 305.044 101.739C305.679 101.491 306.387 101.388 307.166 101.429C307.953 101.47 308.64 101.645 309.226 101.952C309.817 102.26 310.274 102.665 310.597 103.168C310.919 103.666 311.072 104.228 311.054 104.853L309.364 104.764Z" fill="#050505" fill-opacity="0.88"/>
</g>
<defs>
<filter id="filter0_dddd_8015_85850" x="-1.22266" y="-1.2226" width="416.996" height="215.436" filterUnits="userSpaceOnUse" color-interpolation-filters="sRGB">
<feFlood flood-opacity="0" result="BackgroundImageFix"/>
<feColorMatrix in="SourceAlpha" type="matrix" values="0 0 0 0 0 0 0 0 0 0 0 0 0 0 0 0 0 0 127 0" result="hardAlpha"/>
<feOffset dy="0.271728"/>
<feGaussianBlur stdDeviation="0.611388"/>
<feComposite in2="hardAlpha" operator="out"/>
<feColorMatrix type="matrix" values="0 0 0 0 0 0 0 0 0 0 0 0 0 0 0 0 0 0 0.0243888 0"/>
<feBlend mode="normal" in2="BackgroundImageFix" result="effect1_dropShadow_8015_85850"/>
<feColorMatrix in="SourceAlpha" type="matrix" values="0 0 0 0 0 0 0 0 0 0 0 0 0 0 0 0 0 0 127 0" result="hardAlpha"/>
<feOffset dy="0.751293"/>
<feGaussianBlur stdDeviation="1.69041"/>
<feComposite in2="hardAlpha" operator="out"/>
<feColorMatrix type="matrix" values="0 0 0 0 0 0 0 0 0 0 0 0 0 0 0 0 0 0 0.035 0"/>
<feBlend mode="normal" in2="effect1_dropShadow_8015_85850" result="effect2_dropShadow_8015_85850"/>
<feColorMatrix in="SourceAlpha" type="matrix" values="0 0 0 0 0 0 0 0 0 0 0 0 0 0 0 0 0 0 127 0" result="hardAlpha"/>
<feOffset dy="1.80882"/>
<feGaussianBlur stdDeviation="4.06985"/>
<feComposite in2="hardAlpha" operator="out"/>
<feColorMatrix type="matrix" values="0 0 0 0 0 0 0 0 0 0 0 0 0 0 0 0 0 0 0.0456112 0"/>
<feBlend mode="normal" in2="effect2_dropShadow_8015_85850" result="effect3_dropShadow_8015_85850"/>
<feColorMatrix in="SourceAlpha" type="matrix" values="0 0 0 0 0 0 0 0 0 0 0 0 0 0 0 0 0 0 127 0" result="hardAlpha"/>
<feOffset dy="6"/>
<feGaussianBlur stdDeviation="13.5"/>
<feComposite in2="hardAlpha" operator="out"/>
<feColorMatrix type="matrix" values="0 0 0 0 0 0 0 0 0 0 0 0 0 0 0 0 0 0 0.07 0"/>
<feBlend mode="normal" in2="effect3_dropShadow_8015_85850" result="effect4_dropShadow_8015_85850"/>
<feBlend mode="normal" in="SourceGraphic" in2="effect4_dropShadow_8015_85850" result="shape"/>
</filter>
<clipPath id="clip0_8015_85850">
<rect width="20" height="20" fill="white" transform="translate(52.0469 119.898) rotate(3)"/>
</clipPath>
</defs>
</svg>
