<svg width="393" height="212" viewBox="0 0 393 212" fill="none" xmlns="http://www.w3.org/2000/svg">
<g filter="url(#filter0_d_8015_85848)">
<rect width="360" height="187" transform="translate(23.0444 -26) rotate(4)" fill="#F0C000"/>
<path d="M45.541 14.6684L46.3527 3.06034L48.1041 3.18281L47.7513 8.22731L53.5383 8.63198L53.8911 3.58748L55.6482 3.71035L54.8364 15.3184L53.0794 15.1955L53.4333 10.134L47.6463 9.72933L47.2924 14.7908L45.541 14.6684ZM60.9909 15.9253C60.1332 15.8653 59.4073 15.6304 58.8132 15.2205C58.2232 14.8072 57.7834 14.2543 57.4938 13.562C57.2084 12.8661 57.0972 12.0666 57.1603 11.1635C57.2227 10.2718 57.4439 9.49744 57.824 8.84053C58.2079 8.18389 58.7135 7.68575 59.341 7.34612C59.9723 7.00676 60.6923 6.86535 61.5009 6.92189C61.9921 6.95624 62.4625 7.07077 62.9122 7.26549C63.3618 7.46021 63.7577 7.7442 64.1 8.11747C64.4422 8.49073 64.6997 8.9625 64.8724 9.53276C65.0455 10.0992 65.1044 10.7773 65.0491 11.5671L65.0071 12.1679L58.0865 11.684L58.1753 10.4143L63.4352 10.7821C63.4664 10.3363 63.4033 9.93504 63.246 9.5785C63.0889 9.21818 62.853 8.92639 62.5383 8.70314C62.2273 8.48015 61.8526 8.35332 61.4143 8.32267C60.9382 8.28938 60.5144 8.37745 60.1428 8.58689C59.7753 8.79282 59.4821 9.07608 59.2632 9.4367C59.0484 9.79379 58.9258 10.1896 58.8954 10.6242L58.826 11.6161C58.7853 12.198 58.8527 12.7001 59.0282 13.1225C59.2075 13.5451 59.4748 13.877 59.83 14.1183C60.1856 14.3558 60.6108 14.4919 61.1058 14.5265C61.427 14.549 61.723 14.5241 61.9939 14.4519C62.265 14.3759 62.5034 14.2521 62.709 14.0804C62.9147 13.9087 63.078 13.6904 63.1991 13.4255L64.7829 13.8267C64.6214 14.2901 64.362 14.6877 64.0046 15.0197C63.6513 15.3481 63.2184 15.5931 62.7059 15.7547C62.1974 15.9128 61.6257 15.9697 60.9909 15.9253ZM67.2123 19.4645C66.9591 19.4468 66.7301 19.4099 66.5252 19.3538C66.32 19.3015 66.168 19.2491 66.0691 19.1966L66.5743 17.8365C66.8784 17.9413 67.1517 17.9965 67.3943 18.002C67.6369 18.0076 67.8568 17.9318 68.0538 17.7748C68.2546 17.6179 68.4403 17.3518 68.6109 16.9764L68.861 16.413L66.2923 7.37085L68.1061 7.49768L69.8385 14.4081L69.9292 14.4144L72.6064 7.81238L74.4259 7.93961L70.148 17.5567C69.95 17.9985 69.7116 18.3672 69.4327 18.6629C69.1536 18.9623 68.8309 19.179 68.4646 19.3128C68.0983 19.4467 67.6809 19.4973 67.2123 19.4645ZM84.3066 8.63053L84.2114 9.99085L79.456 9.65831L79.5511 8.298L84.3066 8.63053ZM80.9723 6.30136L82.667 6.41987L82.0911 14.6554C82.0681 14.9842 82.1 15.2351 82.1866 15.4083C82.2735 15.5776 82.3922 15.6979 82.5429 15.7692C82.6977 15.837 82.8676 15.8774 83.0528 15.8903C83.1888 15.8998 83.3085 15.8987 83.4118 15.8869C83.5152 15.8752 83.5956 15.8656 83.6531 15.8582L83.8612 17.2796C83.7604 17.3105 83.6179 17.3386 83.4339 17.3637C83.2496 17.3925 83.0213 17.3994 82.749 17.3841C82.3026 17.3605 81.8925 17.2521 81.5187 17.0589C81.1449 16.8657 80.8511 16.5869 80.6374 16.2226C80.4236 15.8583 80.3351 15.4136 80.3718 14.8883L80.9723 6.30136ZM87.8157 12.43L87.4542 17.5992L85.7595 17.4807L86.5712 5.8727L88.2433 5.98962L87.9413 10.3086L88.049 10.3161C88.2858 9.86186 88.6235 9.51147 89.0623 9.26495C89.501 9.01844 90.0585 8.91883 90.7349 8.96613C91.3319 9.00788 91.8448 9.16715 92.2735 9.44394C92.706 9.721 93.028 10.1118 93.2395 10.6165C93.4551 11.1176 93.5375 11.7309 93.4868 12.4564L93.0995 17.994L91.4048 17.8755L91.7778 12.5419C91.8224 11.9033 91.6927 11.3968 91.3885 11.0224C91.0846 10.6442 90.6398 10.4347 90.0541 10.3937C89.6536 10.3657 89.2887 10.4256 88.9594 10.5735C88.6338 10.7216 88.3689 10.9537 88.1645 11.2697C87.9642 11.5823 87.8479 11.969 87.8157 12.43ZM99.101 18.5902C98.2432 18.5302 97.5173 18.2953 96.9232 17.8854C96.3332 17.4721 95.8934 16.9192 95.6039 16.2269C95.3184 15.531 95.2073 14.7315 95.2704 13.8284C95.3328 12.9367 95.554 12.1624 95.9341 11.5054C96.3179 10.8488 96.8236 10.3507 97.4511 10.011C98.0824 9.67167 98.8023 9.53026 99.611 9.58681C100.102 9.62116 100.573 9.73569 101.022 9.93041C101.472 10.1251 101.868 10.4091 102.21 10.7824C102.552 11.1556 102.81 11.6274 102.982 12.1977C103.156 12.7642 103.214 13.4423 103.159 14.232L103.117 14.8328L96.1966 14.3489L96.2854 13.0792L101.545 13.447C101.576 13.0012 101.513 12.6 101.356 12.2434C101.199 11.8831 100.963 11.5913 100.648 11.3681C100.337 11.1451 99.9627 11.0182 99.5244 10.9876C99.0483 10.9543 98.6244 11.0424 98.2529 11.2518C97.8853 11.4577 97.5921 11.741 97.3733 12.1016C97.1584 12.4587 97.0358 12.8545 97.0054 13.2891L96.9361 14.281C96.8954 14.8629 96.9628 15.365 97.1383 15.7874C97.3176 16.21 97.5849 16.542 97.9401 16.7832C98.2956 17.0207 98.7209 17.1568 99.2159 17.1914C99.5371 17.2139 99.8331 17.189 100.104 17.1168C100.375 17.0408 100.613 16.917 100.819 16.7453C101.025 16.5737 101.188 16.3554 101.309 16.0904L102.893 16.4917C102.731 16.955 102.472 17.3527 102.115 17.6846C101.761 18.013 101.328 18.258 100.816 18.4196C100.307 18.5777 99.7358 18.6346 99.101 18.5902ZM104.729 18.8072L105.338 10.1012L106.976 10.2157L106.879 11.5987L106.97 11.605C107.161 11.1476 107.466 10.7987 107.886 10.5584C108.309 10.3146 108.776 10.2106 109.286 10.2463C109.392 10.2537 109.516 10.2662 109.659 10.2838C109.806 10.3016 109.921 10.3191 110.003 10.3363L109.89 11.9573C109.823 11.9337 109.704 11.9044 109.531 11.8696C109.359 11.831 109.186 11.8056 109.013 11.7935C108.612 11.7655 108.249 11.8255 107.924 11.9736C107.602 12.1182 107.34 12.3334 107.138 12.6192C106.936 12.9013 106.822 13.2313 106.795 13.6091L106.424 18.9257L104.729 18.8072ZM114.283 19.6518C113.425 19.5918 112.699 19.3569 112.105 18.9471C111.515 18.5337 111.075 17.9808 110.786 17.2885C110.5 16.5926 110.389 15.7932 110.452 14.8901C110.514 13.9983 110.736 13.224 111.116 12.5671C111.5 11.9104 112.005 11.4123 112.633 11.0726C113.264 10.7333 113.984 10.5919 114.793 10.6484C115.284 10.6828 115.754 10.7973 116.204 10.992C116.654 11.1867 117.049 11.4707 117.392 11.844C117.734 12.2173 117.991 12.689 118.164 13.2593C118.337 13.8258 118.396 14.5039 118.341 15.2936L118.299 15.8944L111.378 15.4105L111.467 14.1408L116.727 14.5087C116.758 14.0628 116.695 13.6616 116.538 13.305C116.381 12.9447 116.145 12.6529 115.83 12.4297C115.519 12.2067 115.144 12.0798 114.706 12.0492C114.23 12.0159 113.806 12.104 113.435 12.3134C113.067 12.5193 112.774 12.8026 112.555 13.1632C112.34 13.5203 112.218 13.9161 112.187 14.3507L112.118 15.3426C112.077 15.9245 112.144 16.4266 112.32 16.849C112.499 17.2716 112.767 17.6036 113.122 17.8448C113.477 18.0823 113.903 18.2184 114.398 18.253C114.719 18.2755 115.015 18.2506 115.286 18.1784C115.557 18.1024 115.795 17.9786 116.001 17.8069C116.206 17.6353 116.37 17.417 116.491 17.152L118.075 17.5533C117.913 18.0166 117.654 18.4143 117.296 18.7462C116.943 19.0746 116.51 19.3196 115.998 19.4813C115.489 19.6394 114.917 19.6962 114.283 19.6518ZM122.917 21.2018L138.878 22.3179L139.994 6.35685L124.033 5.24074L122.917 21.2018ZM43.024 42.4354L43.1295 40.9277L52.1132 41.556L52.0078 43.0636L48.3859 42.8104L47.6797 52.9107L45.9339 52.7886L46.6402 42.6883L43.024 42.4354ZM55.2069 48.2426L54.8454 53.4118L53.1507 53.2933L53.9624 41.6853L55.6344 41.8022L55.3324 46.1212L55.4401 46.1287C55.6769 45.6744 56.0147 45.324 56.4534 45.0775C56.8921 44.831 57.4497 44.7314 58.1261 44.7787C58.7231 44.8204 59.2359 44.9797 59.6647 45.2565C60.0971 45.5336 60.4191 45.9244 60.6307 46.429C60.8462 46.9301 60.9287 47.5434 60.8779 48.2689L60.4907 53.8065L58.796 53.688L59.1689 48.3545C59.2136 47.7159 59.0838 47.2094 58.7797 46.835C58.4758 46.4568 58.031 46.2472 57.4453 46.2063C57.0447 46.1783 56.6798 46.2382 56.3505 46.386C56.025 46.5341 55.7601 46.7662 55.5557 47.0823C55.3554 47.3948 55.2391 47.7816 55.2069 48.2426ZM62.7522 53.9647L63.361 45.2587L65.0557 45.3772L64.4469 54.0832L62.7522 53.9647ZM64.3108 43.9752C64.0161 43.9546 63.7698 43.8386 63.5719 43.6274C63.3781 43.4126 63.2908 43.1672 63.3101 42.8914C63.3297 42.6118 63.4502 42.381 63.6718 42.199C63.8974 42.0136 64.1576 41.9311 64.4523 41.9517C64.747 41.9723 64.9913 42.0901 65.1851 42.3049C65.383 42.5161 65.4722 42.7616 65.4526 43.0412C65.4333 43.3171 65.3109 43.5477 65.0853 43.7332C64.8637 43.9151 64.6055 43.9958 64.3108 43.9752ZM73.7109 48.1183L72.1558 48.2829C72.1053 48.082 72.0164 47.8878 71.889 47.7004C71.7654 47.5133 71.5904 47.3549 71.3641 47.2251C71.1377 47.0954 70.8488 47.0182 70.4974 46.9937C70.0175 46.9601 69.6095 47.0398 69.2732 47.2327C68.9372 47.4219 68.7575 47.6846 68.734 48.0209C68.7136 48.3118 68.8049 48.5536 69.0079 48.7463C69.2109 48.939 69.5483 49.1087 70.0203 49.2557L71.3811 49.6698C72.1692 49.9109 72.7463 50.238 73.1123 50.6509C73.4783 51.0638 73.6398 51.5782 73.5968 52.1941C73.5603 52.7156 73.3766 53.1698 73.0458 53.5567C72.719 53.9402 72.2793 54.2284 71.7266 54.4214C71.1777 54.6146 70.5518 54.6867 69.849 54.6375C68.8741 54.5693 68.0932 54.3059 67.5064 53.8472C66.9198 53.3847 66.5835 52.7631 66.4976 51.9825L68.1531 51.8476C68.2253 52.2818 68.4124 52.6195 68.7145 52.8609C69.0168 53.0984 69.4231 53.2351 69.9332 53.2707C70.4886 53.3096 70.9407 53.2254 71.2893 53.0181C71.6382 52.8071 71.8244 52.5334 71.848 52.1971C71.867 51.9251 71.7809 51.6893 71.5899 51.4899C71.4025 51.2908 71.1043 51.1294 70.6953 51.0059L69.2442 50.5798C68.4448 50.3378 67.8646 50.001 67.5036 49.5695C67.1465 49.1382 66.9896 48.6128 67.0329 47.9931C67.0688 47.4792 67.2439 47.0395 67.558 46.6742C67.8721 46.3089 68.2899 46.0362 68.8113 45.8562C69.333 45.6725 69.9206 45.6035 70.5744 45.6492C71.5152 45.715 72.2416 45.9708 72.7534 46.4167C73.2655 46.8588 73.5846 47.426 73.7109 48.1183ZM79.5082 55.1364L80.117 46.4304L81.8117 46.5489L81.2029 55.2549L79.5082 55.1364ZM81.0668 45.1469C80.772 45.1263 80.5257 45.0103 80.3279 44.7991C80.134 44.5843 80.0468 44.3389 80.0661 44.0631C80.0856 43.7835 80.2062 43.5527 80.4277 43.3707C80.6534 43.1853 80.9135 43.1028 81.2083 43.1234C81.503 43.144 81.7473 43.2617 81.9411 43.4765C82.139 43.6878 82.2281 43.9333 82.2086 44.2129C82.1893 44.4887 82.0668 44.7194 81.8412 44.9049C81.6197 45.0868 81.3615 45.1675 81.0668 45.1469ZM90.4669 49.29L88.9118 49.4546C88.8613 49.2537 88.7724 49.0595 88.645 48.8721C88.5214 48.685 88.3464 48.5266 88.12 48.3968C87.8937 48.2671 87.6048 48.1899 87.2534 48.1654C86.7735 48.1318 86.3654 48.2115 86.0292 48.4044C85.6932 48.5935 85.5134 48.8563 85.4899 49.1926C85.4696 49.4835 85.5609 49.7253 85.7639 49.918C85.9668 50.1106 86.3043 50.2804 86.7762 50.4274L88.137 50.8415C88.9252 51.0826 89.5022 51.4097 89.8683 51.8226C90.2343 52.2355 90.3958 52.7499 90.3527 53.3658C90.3162 53.8873 90.1326 54.3415 89.8018 54.7284C89.475 55.1119 89.0353 55.4001 88.4826 55.5931C87.9337 55.7863 87.3078 55.8583 86.605 55.8092C85.6301 55.741 84.8492 55.4776 84.2623 55.0189C83.6757 54.5564 83.3395 53.9348 83.2536 53.1542L84.9091 53.0193C84.9812 53.4534 85.1684 53.7912 85.4704 54.0325C85.7728 54.2701 86.179 54.4067 86.6891 54.4424C87.2446 54.4813 87.6967 54.3971 88.0453 54.1898C88.3942 53.9788 88.5804 53.7051 88.6039 53.3688C88.6229 53.0968 88.5369 52.861 88.3458 52.6616C88.1585 52.4624 87.8603 52.3011 87.4513 52.1776L86.0002 51.7514C85.2007 51.5095 84.6205 51.1727 84.2596 50.7412C83.9024 50.3099 83.7455 49.7844 83.7889 49.1648C83.8248 48.6509 83.9998 48.2112 84.314 47.8459C84.6281 47.4806 85.0459 47.2079 85.5673 47.0279C86.0889 46.8442 86.6766 46.7751 87.3303 46.8209C88.2712 46.8866 88.9975 47.1425 89.5094 47.5884C90.0214 48.0305 90.3406 48.5977 90.4669 49.29ZM100.937 47.8862L100.842 49.2465L96.0863 48.914L96.1814 47.5537L100.937 47.8862ZM97.6026 45.5571L99.2973 45.6756L98.7214 53.9111C98.6984 54.2399 98.7302 54.4908 98.8169 54.6639C98.9038 54.8333 99.0225 54.9536 99.1732 55.0249C99.328 55.0927 99.4979 55.1331 99.6831 55.146C99.8191 55.1555 99.9388 55.1544 100.042 55.1426C100.145 55.1309 100.226 55.1213 100.283 55.1139L100.492 56.5353C100.391 56.5662 100.248 56.5943 100.064 56.6194C99.8799 56.6482 99.6516 56.6551 99.3793 56.6398C98.9329 56.6162 98.5228 56.5078 98.149 56.3146C97.7752 56.1213 97.4814 55.8426 97.2676 55.4783C97.0539 55.114 96.9654 54.6693 97.0021 54.144L97.6026 45.5571ZM104.446 51.6857L104.085 56.8549L102.39 56.7364L103.202 45.1284L104.874 45.2453L104.572 49.5643L104.679 49.5718C104.916 49.1176 105.254 48.7672 105.693 48.5207C106.131 48.2741 106.689 48.1745 107.365 48.2218C107.962 48.2636 108.475 48.4228 108.904 48.6996C109.336 48.9767 109.658 49.3675 109.87 49.8722C110.085 50.3733 110.168 50.9866 110.117 51.7121L109.73 57.2497L108.035 57.1312L108.408 51.7976C108.453 51.159 108.323 50.6525 108.019 50.2781C107.715 49.8999 107.27 49.6904 106.684 49.6494C106.284 49.6214 105.919 49.6813 105.59 49.8292C105.264 49.9773 104.999 50.2094 104.795 50.5254C104.595 50.838 104.478 51.2247 104.446 51.6857ZM115.731 57.8459C114.874 57.7859 114.148 57.551 113.554 57.1411C112.964 56.7278 112.524 56.1749 112.234 55.4826C111.949 54.7867 111.838 53.9872 111.901 53.0841C111.963 52.1924 112.184 51.418 112.564 50.7611C112.948 50.1045 113.454 49.6064 114.081 49.2667C114.713 48.9274 115.433 48.786 116.241 48.8425C116.732 48.8769 117.203 48.9914 117.653 49.1861C118.102 49.3808 118.498 49.6648 118.84 50.0381C119.183 50.4113 119.44 50.8831 119.613 51.4534C119.786 52.0198 119.845 52.698 119.789 53.4877L119.747 54.0885L112.827 53.6046L112.916 52.3349L118.176 52.7027C118.207 52.2569 118.144 51.8557 117.986 51.4991C117.829 51.1388 117.593 50.847 117.279 50.6237C116.968 50.4008 116.593 50.2739 116.155 50.2433C115.679 50.21 115.255 50.2981 114.883 50.5075C114.516 50.7134 114.222 50.9967 114.004 51.3573C113.789 51.7144 113.666 52.1102 113.636 52.5448L113.566 53.5367C113.526 54.1186 113.593 54.6207 113.769 55.0431C113.948 55.4657 114.215 55.7977 114.57 56.0389C114.926 56.2764 115.351 56.4125 115.846 56.4471C116.167 56.4696 116.463 56.4447 116.734 56.3725C117.005 56.2965 117.244 56.1727 117.449 56.001C117.655 55.8294 117.818 55.6111 117.939 55.3461L119.523 55.7474C119.362 56.2107 119.102 56.6083 118.745 56.9403C118.392 57.2687 117.959 57.5137 117.446 57.6753C116.938 57.8334 116.366 57.8903 115.731 57.8459ZM129.238 58.7904C128.395 58.7315 127.683 58.4899 127.102 58.0657C126.524 57.638 126.096 57.0746 125.819 56.3755C125.541 55.6764 125.433 54.8904 125.494 54.0176C125.556 53.1334 125.776 52.3647 126.156 51.7116C126.536 51.0547 127.042 50.5565 127.673 50.2172C128.304 49.8778 129.03 49.7368 129.85 49.7941C130.511 49.8404 131.092 50.0044 131.593 50.2862C132.093 50.5642 132.487 50.9335 132.774 51.394C133.065 51.8548 133.22 52.3802 133.239 52.9701L131.59 52.8547C131.528 52.4403 131.344 52.0744 131.04 51.7569C130.739 51.4397 130.319 51.2622 129.779 51.2244C129.306 51.1914 128.884 51.2872 128.511 51.5117C128.142 51.7328 127.844 52.065 127.616 52.5085C127.387 52.9482 127.252 53.4779 127.208 54.0976C127.164 54.7324 127.222 55.287 127.382 55.7615C127.543 56.236 127.79 56.6121 128.124 56.8898C128.461 57.1678 128.87 57.3236 129.35 57.3572C129.671 57.3796 129.966 57.3414 130.235 57.2425C130.508 57.1401 130.741 56.9836 130.934 56.7731C131.131 56.5628 131.276 56.3034 131.37 55.9948L133.019 56.1101C132.92 56.6689 132.701 57.1587 132.364 57.5794C132.027 58.0001 131.593 58.319 131.061 58.5363C130.534 58.7538 129.926 58.8385 129.238 58.7904ZM138.294 59.4237C137.478 59.3666 136.779 59.1297 136.196 58.7131C135.614 58.2965 135.179 57.7401 134.889 57.044C134.6 56.3479 134.487 55.5501 134.55 54.6508C134.613 53.7477 134.836 52.9698 135.22 52.3169C135.603 51.664 136.112 51.1718 136.747 50.8403C137.382 50.5087 138.107 50.3715 138.923 50.4286C139.739 50.4856 140.438 50.7225 141.021 51.1391C141.603 51.5557 142.038 52.114 142.327 52.8139C142.616 53.5138 142.729 54.3153 142.666 55.2184C142.603 56.1177 142.38 56.8919 141.997 57.541C141.614 58.1901 141.105 58.6804 140.47 59.0119C139.836 59.3435 139.11 59.4807 138.294 59.4237ZM138.399 58.0014C138.928 58.0384 139.376 57.9292 139.744 57.6739C140.111 57.4186 140.394 57.0644 140.592 56.6112C140.795 56.1583 140.916 55.6523 140.955 55.093C140.994 54.5376 140.944 54.0215 140.807 53.5448C140.673 53.0647 140.443 52.6707 140.115 52.363C139.787 52.0553 139.359 51.883 138.83 51.846C138.297 51.8087 137.845 51.9195 137.474 52.1783C137.106 52.4374 136.821 52.7953 136.618 53.2519C136.419 53.7051 136.301 54.2094 136.262 54.7649C136.223 55.3241 136.27 55.8419 136.404 56.3183C136.541 56.795 136.774 57.1853 137.102 57.4892C137.434 57.7934 137.866 57.9641 138.399 58.0014ZM147.911 60.0961C147.095 60.0391 146.396 59.8022 145.814 59.3856C145.231 58.969 144.796 58.4126 144.506 57.7165C144.217 57.0204 144.104 56.2226 144.167 55.3233C144.23 54.4202 144.453 53.6422 144.837 52.9894C145.221 52.3365 145.73 51.8443 146.364 51.5128C146.999 51.1812 147.724 51.044 148.54 51.1011C149.356 51.1581 150.056 51.395 150.638 51.8116C151.22 52.2282 151.656 52.7865 151.945 53.4864C152.234 54.1863 152.347 54.9878 152.283 55.8909C152.221 56.7902 151.997 57.5644 151.614 58.2135C151.231 58.8626 150.722 59.3529 150.087 59.6844C149.453 60.016 148.727 60.1532 147.911 60.0961ZM148.016 58.6739C148.545 58.7109 148.993 58.6017 149.361 58.3464C149.728 58.0911 150.011 57.7369 150.21 57.2837C150.412 56.8308 150.533 56.3248 150.572 55.7655C150.611 55.2101 150.562 54.694 150.424 54.2173C150.291 53.7372 150.06 53.3432 149.732 53.0355C149.404 52.7278 148.976 52.5554 148.447 52.5185C147.914 52.4812 147.462 52.592 147.091 52.8508C146.723 53.1099 146.438 53.4678 146.235 53.9244C146.037 54.3776 145.918 54.8819 145.879 55.4374C145.84 55.9966 145.887 56.5144 146.021 56.9908C146.159 57.4675 146.391 57.8578 146.719 58.1617C147.051 58.4659 147.484 58.6366 148.016 58.6739ZM156.38 48.847L155.568 60.455L153.873 60.3365L154.685 48.7285L156.38 48.847ZM161.588 61.0525C160.73 60.9925 160.004 60.7576 159.41 60.3478C158.82 59.9344 158.381 59.3815 158.091 58.6892C157.805 57.9933 157.694 57.1939 157.757 56.2908C157.82 55.399 158.041 54.6247 158.421 53.9678C158.805 53.3111 159.311 52.813 159.938 52.4734C160.569 52.134 161.289 51.9926 162.098 52.0491C162.589 52.0835 163.06 52.198 163.509 52.3927C163.959 52.5874 164.355 52.8714 164.697 53.2447C165.039 53.618 165.297 54.0897 165.47 54.66C165.643 55.2265 165.701 55.9046 165.646 56.6943L165.604 57.2951L158.684 56.8112L158.772 55.5416L164.032 55.9094C164.063 55.4635 164 55.0623 163.843 54.7057C163.686 54.3454 163.45 54.0536 163.135 53.8304C162.824 53.6074 162.45 53.4806 162.011 53.4499C161.535 53.4166 161.112 53.5047 160.74 53.7141C160.372 53.92 160.079 54.2033 159.86 54.5639C159.646 54.921 159.523 55.3168 159.493 55.7514L159.423 56.7433C159.382 57.3252 159.45 57.8273 159.625 58.2497C159.805 58.6723 160.072 59.0043 160.427 59.2456C160.783 59.4831 161.208 59.6191 161.703 59.6537C162.024 59.6762 162.32 59.6513 162.591 59.5791C162.862 59.5032 163.1 59.3793 163.306 59.2077C163.512 59.036 163.675 58.8177 163.796 58.5527L165.38 58.954C165.219 59.4173 164.959 59.815 164.602 60.1469C164.248 60.4753 163.816 60.7204 163.303 60.882C162.795 61.0401 162.223 61.0969 161.588 61.0525ZM174.2 55.1452L172.645 55.3098C172.594 55.1088 172.505 54.9147 172.378 54.7273C172.254 54.5402 172.079 54.3818 171.853 54.252C171.627 54.1223 171.338 54.0451 170.986 54.0205C170.507 53.987 170.098 54.0667 169.762 54.2596C169.426 54.4487 169.246 54.7115 169.223 55.0478C169.203 55.3387 169.294 55.5805 169.497 55.7732C169.7 55.9658 170.037 56.1356 170.509 56.2825L171.87 56.6967C172.658 56.9378 173.235 57.2649 173.601 57.6778C173.967 58.0907 174.129 58.6051 174.086 59.221C174.049 59.7424 173.866 60.1967 173.535 60.5836C173.208 60.9671 172.768 61.2553 172.216 61.4482C171.667 61.6415 171.041 61.7135 170.338 61.6644C169.363 61.5962 168.582 61.3328 167.995 60.874C167.409 60.4115 167.073 59.79 166.987 59.0094L168.642 58.8745C168.714 59.3086 168.901 59.6464 169.203 59.8877C169.506 60.1253 169.912 60.2619 170.422 60.2976C170.978 60.3364 171.43 60.2522 171.778 60.045C172.127 59.834 172.313 59.5603 172.337 59.224C172.356 58.9519 172.27 58.7162 172.079 58.5168C171.892 58.3176 171.593 58.1563 171.184 58.0327L169.733 57.6066C168.934 57.3647 168.354 57.0279 167.993 56.5964C167.635 56.1651 167.479 55.6396 167.522 55.0199C167.558 54.506 167.733 54.0664 168.047 53.7011C168.361 53.3357 168.779 53.0631 169.3 52.8831C169.822 52.6993 170.41 52.6303 171.063 52.676C172.004 52.7418 172.731 52.9977 173.242 53.4435C173.754 53.8856 174.074 54.4529 174.2 55.1452ZM180.446 53.446L180.351 54.8064L175.595 54.4738L175.69 53.1135L180.446 53.446ZM177.112 51.1169L178.806 51.2354L178.23 59.4709C178.207 59.7997 178.239 60.0506 178.326 60.2238C178.413 60.3931 178.532 60.5134 178.682 60.5847C178.837 60.6525 179.007 60.6929 179.192 60.7058C179.328 60.7153 179.448 60.7142 179.551 60.7024C179.654 60.6907 179.735 60.6811 179.792 60.6737L180.001 62.0951C179.9 62.1261 179.757 62.1541 179.573 62.1792C179.389 62.208 179.161 62.2149 178.888 62.1996C178.442 62.176 178.032 62.0676 177.658 61.8744C177.284 61.6812 176.99 61.4024 176.777 61.0381C176.563 60.6738 176.474 60.2291 176.511 59.7039L177.112 51.1169ZM186.072 62.588L186.884 50.98L188.578 51.0985L188.277 55.4118L188.379 55.419C188.49 55.2445 188.646 55.0447 188.848 54.8196C189.05 54.5945 189.321 54.4046 189.662 54.25C190.004 54.0916 190.445 54.0313 190.985 54.0691C191.688 54.1182 192.303 54.3397 192.829 54.7335C193.356 55.1272 193.753 55.6695 194.02 56.3602C194.291 57.0513 194.393 57.8672 194.327 58.8081C194.261 59.749 194.048 60.5448 193.688 61.1954C193.327 61.8423 192.86 62.328 192.287 62.6524C191.714 62.9731 191.076 63.1088 190.373 63.0597C189.844 63.0227 189.418 62.9036 189.094 62.7025C188.774 62.5017 188.528 62.2756 188.355 62.0244C188.183 61.7731 188.052 61.5513 187.963 61.359L187.822 61.3491L187.727 62.7038L186.072 62.588ZM188.037 58.3512C187.994 58.9633 188.045 59.5061 188.191 59.9795C188.336 60.4529 188.568 60.8317 188.886 61.116C189.204 61.3964 189.607 61.5537 190.095 61.5878C190.601 61.6232 191.034 61.5187 191.392 61.2742C191.751 61.0259 192.034 60.6754 192.24 60.2228C192.451 59.7704 192.576 59.2533 192.617 58.6714C192.657 58.097 192.606 57.5752 192.464 57.1058C192.326 56.6367 192.094 56.2579 191.769 55.9693C191.447 55.681 191.032 55.5191 190.521 55.4834C190.03 55.449 189.606 55.5466 189.248 55.7759C188.894 56.0056 188.614 56.3411 188.409 56.7824C188.203 57.2236 188.079 57.7466 188.037 58.3512ZM195.927 63.2772L196.536 54.5712L198.174 54.6857L198.077 56.0687L198.168 56.075C198.359 55.6176 198.665 55.2687 199.084 55.0284C199.507 54.7846 199.974 54.6806 200.484 54.7163C200.59 54.7237 200.714 54.7362 200.857 54.7537C201.004 54.7716 201.119 54.7891 201.201 54.8063L201.088 56.4273C201.021 56.4037 200.902 56.3744 200.729 56.3396C200.558 56.301 200.385 56.2756 200.211 56.2635C199.81 56.2354 199.447 56.2955 199.122 56.4436C198.8 56.5882 198.538 56.8034 198.336 57.0892C198.134 57.3713 198.02 57.7013 197.994 58.0791L197.622 63.3957L195.927 63.2772ZM205.396 64.1159C204.58 64.0588 203.88 63.8219 203.298 63.4053C202.716 62.9887 202.28 62.4323 201.991 61.7362C201.702 61.0401 201.589 60.2424 201.651 59.343C201.715 58.4399 201.938 57.662 202.322 57.0091C202.705 56.3562 203.214 55.864 203.849 55.5325C204.483 55.2009 205.209 55.0637 206.025 55.1208C206.841 55.1779 207.54 55.4147 208.122 55.8313C208.705 56.248 209.14 56.8062 209.429 57.5061C209.718 58.206 209.831 59.0075 209.768 59.9106C209.705 60.8099 209.482 61.5841 209.099 62.2332C208.715 62.8823 208.206 63.3726 207.572 63.7042C206.937 64.0357 206.212 64.1729 205.396 64.1159ZM205.501 62.6936C206.03 62.7306 206.478 62.6214 206.845 62.3661C207.212 62.1108 207.495 61.7566 207.694 61.3034C207.897 60.8505 208.018 60.3445 208.057 59.7852C208.096 59.2298 208.046 58.7137 207.909 58.2371C207.775 57.7569 207.544 57.3629 207.217 57.0552C206.889 56.7475 206.46 56.5752 205.931 56.5382C205.399 56.5009 204.947 56.6117 204.575 56.8705C204.208 57.1296 203.923 57.4875 203.72 57.9442C203.521 58.3973 203.402 58.9016 203.364 59.4571C203.325 60.0163 203.372 60.5341 203.506 61.0105C203.643 61.4872 203.876 61.8775 204.204 62.1814C204.536 62.4856 204.968 62.6563 205.501 62.6936ZM212.981 64.4697L211.027 55.5845L212.779 55.707L214.038 62.2198L214.123 62.2257L216.282 55.9519L218.033 56.0744L219.288 62.5584L219.373 62.5644L221.513 56.3177L223.265 56.4402L220.1 64.9675L218.371 64.8466L217.042 58.4371L216.912 58.428L214.704 64.5902L212.981 64.4697ZM231.248 59.1344L229.693 59.299C229.643 59.098 229.554 58.9039 229.426 58.7165C229.303 58.5294 229.128 58.3709 228.901 58.2412C228.675 58.1115 228.386 58.0343 228.035 58.0097C227.555 57.9762 227.147 58.0559 226.81 58.2488C226.474 58.4379 226.295 58.7007 226.271 59.037C226.251 59.3279 226.342 59.5697 226.545 59.7624C226.748 59.955 227.086 60.1248 227.557 60.2717L228.918 60.6858C229.706 60.927 230.283 61.2541 230.65 61.667C231.016 62.0799 231.177 62.5943 231.134 63.2102C231.097 63.7316 230.914 64.1859 230.583 64.5728C230.256 64.9562 229.816 65.2445 229.264 65.4374C228.715 65.6307 228.089 65.7027 227.386 65.6536C226.411 65.5854 225.63 65.322 225.044 64.8632C224.457 64.4007 224.121 63.7792 224.035 62.9986L225.69 62.8637C225.762 63.2978 225.95 63.6356 226.252 63.8769C226.554 64.1145 226.96 64.2511 227.47 64.2868C228.026 64.3256 228.478 64.2414 228.827 64.0342C229.175 63.8232 229.362 63.5495 229.385 63.2132C229.404 62.9411 229.318 62.7054 229.127 62.506C228.94 62.3068 228.642 62.1455 228.232 62.0219L226.781 61.5958C225.982 61.3539 225.402 61.0171 225.041 60.5856C224.684 60.1543 224.527 59.6288 224.57 59.0091C224.606 58.4952 224.781 58.0556 225.095 57.6903C225.409 57.3249 225.827 57.0523 226.348 56.8723C226.87 56.6885 227.458 56.6195 228.112 56.6652C229.052 56.731 229.779 56.9869 230.291 57.4327C230.803 57.8748 231.122 58.4421 231.248 59.1344ZM236.561 66.2952C235.703 66.2352 234.978 66.0003 234.383 65.5904C233.793 65.177 233.354 64.6242 233.064 63.9318C232.779 63.236 232.667 62.4365 232.731 61.5334C232.793 60.6416 233.014 59.8673 233.394 59.2104C233.778 58.5538 234.284 58.0556 234.911 57.716C235.543 57.3766 236.263 57.2352 237.071 57.2918C237.562 57.3261 238.033 57.4406 238.482 57.6354C238.932 57.8301 239.328 58.1141 239.67 58.4873C240.012 58.8606 240.27 59.3324 240.443 59.9026C240.616 60.4691 240.675 61.1472 240.619 61.9369L240.577 62.5378L233.657 62.0538L233.746 60.7842L239.005 61.152C239.037 60.7061 238.974 60.3049 238.816 59.9484C238.659 59.588 238.423 59.2963 238.109 59.073C237.798 58.85 237.423 58.7232 236.985 58.6925C236.509 58.6592 236.085 58.7473 235.713 58.9568C235.346 59.1627 235.052 59.4459 234.834 59.8066C234.619 60.1637 234.496 60.5595 234.466 60.994L234.396 61.9859C234.356 62.5678 234.423 63.07 234.599 63.4923C234.778 63.915 235.045 64.2469 235.4 64.4882C235.756 64.7257 236.181 64.8617 236.676 64.8964C236.997 64.9188 237.293 64.894 237.564 64.8218C237.835 64.7458 238.074 64.622 238.279 64.4503C238.485 64.2786 238.648 64.0603 238.769 63.7954L240.353 64.1966C240.192 64.66 239.932 65.0576 239.575 65.3895C239.222 65.718 238.789 65.963 238.276 66.1246C237.768 66.2827 237.196 66.3396 236.561 66.2952ZM242.189 66.5121L242.798 57.8061L244.436 57.9207L244.339 59.3036L244.43 59.31C244.621 58.8525 244.927 58.5037 245.346 58.2634C245.769 58.0196 246.236 57.9155 246.746 57.9512C246.852 57.9586 246.976 57.9711 247.12 57.9887C247.266 58.0066 247.381 58.0241 247.463 58.0412L247.35 59.6623C247.283 59.6386 247.164 59.6094 246.992 59.5746C246.82 59.5359 246.647 59.5106 246.473 59.4984C246.072 59.4704 245.709 59.5305 245.384 59.6786C245.062 59.8232 244.8 60.0384 244.598 60.3242C244.396 60.6062 244.282 60.9362 244.256 61.3141L243.884 66.6306L242.189 66.5121ZM254.595 62.1852L254.234 67.3544L252.539 67.2359L253.351 55.6278L255.023 55.7448L254.721 60.0638L254.828 60.0713C255.065 59.617 255.403 59.2666 255.842 59.0201C256.28 58.7736 256.838 58.674 257.514 58.7213C258.111 58.763 258.624 58.9223 259.053 59.1991C259.485 59.4761 259.807 59.867 260.019 60.3716C260.234 60.8727 260.317 61.486 260.266 62.2115L259.879 67.7491L258.184 67.6306L258.557 62.297C258.602 61.6585 258.472 61.152 258.168 60.7776C257.864 60.3994 257.419 60.1898 256.833 60.1488C256.433 60.1208 256.068 60.1808 255.739 60.3286C255.413 60.4767 255.148 60.7088 254.944 61.0249C254.743 61.3374 254.627 61.7242 254.595 62.1852ZM265.795 68.3394C264.979 68.2823 264.28 68.0455 263.698 67.6288C263.115 67.2122 262.68 66.6559 262.39 65.9597C262.101 65.2636 261.988 64.4659 262.051 63.5666C262.114 62.6635 262.337 61.8855 262.721 61.2326C263.105 60.5798 263.614 60.0876 264.248 59.756C264.883 59.4245 265.608 59.2872 266.424 59.3443C267.24 59.4014 267.94 59.6382 268.522 60.0549C269.104 60.4715 269.54 61.0298 269.829 61.7297C270.118 62.4296 270.231 63.231 270.167 64.1341C270.105 65.0335 269.881 65.8077 269.498 66.4567C269.115 67.1058 268.606 67.5961 267.971 67.9277C267.337 68.2592 266.611 68.3965 265.795 68.3394ZM265.9 66.9171C266.429 66.9541 266.878 66.845 267.245 66.5897C267.612 66.3343 267.895 65.9801 268.094 65.527C268.296 65.0741 268.417 64.568 268.456 64.0088C268.495 63.4533 268.446 62.9373 268.308 62.4606C268.175 61.9804 267.944 61.5865 267.616 61.2788C267.288 60.9711 266.86 60.7987 266.331 60.7617C265.798 60.7245 265.346 60.8352 264.975 61.0941C264.607 61.3532 264.322 61.711 264.119 62.1677C263.921 62.6208 263.802 63.1251 263.763 63.6806C263.724 64.2398 263.771 64.7577 263.905 65.2341C264.043 65.7107 264.275 66.101 264.603 66.405C264.935 66.7092 265.368 66.8799 265.9 66.9171ZM271.757 68.5798L272.366 59.8737L273.993 59.9875L273.894 61.4045L274.002 61.412C274.217 60.9448 274.539 60.5915 274.97 60.352C275.401 60.1087 275.903 60.0072 276.478 60.0473C277.06 60.088 277.538 60.2581 277.912 60.5577C278.289 60.8575 278.556 61.2521 278.712 61.7414L278.802 61.7477C279.043 61.2975 279.399 60.9503 279.872 60.7062C280.345 60.4582 280.895 60.3562 281.522 60.4001C282.312 60.4553 282.939 60.7479 283.403 61.2777C283.871 61.8079 284.07 62.5717 284 63.5693L283.592 69.4073L281.897 69.2888L282.295 63.6095C282.336 63.02 282.205 62.5818 281.902 62.2948C281.6 62.0079 281.225 61.8488 280.78 61.8176C280.228 61.7791 279.787 61.9191 279.457 62.2378C279.128 62.5527 278.944 62.9746 278.907 63.5036L278.519 69.0526L276.83 68.9345L277.235 63.1475C277.268 62.6751 277.147 62.2851 276.873 61.9773C276.598 61.6695 276.224 61.4991 275.752 61.4661C275.431 61.4436 275.128 61.5079 274.844 61.6589C274.564 61.8064 274.331 62.0236 274.144 62.3105C273.96 62.5976 273.855 62.9377 273.828 63.3307L273.452 68.6983L271.757 68.5798ZM289.604 70.0042C288.746 69.9443 288.02 69.7093 287.426 69.2995C286.836 68.8861 286.396 68.3332 286.107 67.6409C285.821 66.9451 285.71 66.1456 285.773 65.2425C285.835 64.3507 286.057 63.5764 286.437 62.9195C286.821 62.2628 287.326 61.7647 287.954 61.4251C288.585 61.0857 289.305 60.9443 290.114 61.0008C290.605 61.0352 291.075 61.1497 291.525 61.3444C291.974 61.5392 292.37 61.8231 292.713 62.1964C293.055 62.5697 293.312 63.0414 293.485 63.6117C293.658 64.1782 293.717 64.8563 293.662 65.646L293.62 66.2468L286.699 65.7629L286.788 64.4933L292.048 64.8611C292.079 64.4152 292.016 64.014 291.859 63.6574C291.702 63.2971 291.466 63.0053 291.151 62.7821C290.84 62.5591 290.465 62.4323 290.027 62.4016C289.551 62.3683 289.127 62.4564 288.755 62.6658C288.388 62.8718 288.095 63.155 287.876 63.5156C287.661 63.8727 287.538 64.2686 287.508 64.7031L287.439 65.695C287.398 66.2769 287.465 66.7791 287.641 67.2014C287.82 67.624 288.087 67.956 288.443 68.1973C288.798 68.4348 289.223 68.5708 289.718 68.6054C290.04 68.6279 290.336 68.603 290.607 68.5308C290.878 68.4549 291.116 68.331 291.322 68.1594C291.527 67.9877 291.691 67.7694 291.812 67.5045L293.396 67.9057C293.234 68.369 292.975 68.7667 292.617 69.0986C292.264 69.4271 291.831 69.6721 291.319 69.8337C290.81 69.9918 290.238 70.0486 289.604 70.0042ZM306.439 64.3923L304.884 64.5569C304.834 64.3559 304.745 64.1618 304.618 63.9744C304.494 63.7873 304.319 63.6288 304.093 63.4991C303.866 63.3694 303.577 63.2922 303.226 63.2676C302.746 63.2341 302.338 63.3138 302.002 63.5067C301.666 63.6958 301.486 63.9585 301.463 64.2948C301.442 64.5858 301.534 64.8276 301.736 65.0203C301.939 65.2129 302.277 65.3827 302.749 65.5296L304.11 65.9437C304.898 66.1849 305.475 66.512 305.841 66.9249C306.207 67.3378 306.368 67.8522 306.325 68.4681C306.289 68.9895 306.105 69.4437 305.774 69.8307C305.448 70.2141 305.008 70.5024 304.455 70.6953C303.906 70.8886 303.28 70.9606 302.578 70.9115C301.603 70.8433 300.822 70.5799 300.235 70.1211C299.648 69.6586 299.312 69.0371 299.226 68.2565L300.882 68.1216C300.954 68.5557 301.141 68.8935 301.443 69.1348C301.745 69.3724 302.152 69.509 302.662 69.5447C303.217 69.5835 303.669 69.4993 304.018 69.2921C304.367 69.0811 304.553 68.8074 304.577 68.4711C304.596 68.199 304.51 67.9633 304.318 67.7639C304.131 67.5647 303.833 67.4034 303.424 67.2798L301.973 66.8537C301.173 66.6118 300.593 66.275 300.232 65.8435C299.875 65.4122 299.718 64.8867 299.761 64.267C299.797 63.7531 299.972 63.3135 300.287 62.9482C300.601 62.5828 301.018 62.3102 301.54 62.1302C302.062 61.9464 302.649 61.8774 303.303 61.9231C304.244 61.9889 304.97 62.2448 305.482 62.6906C305.994 63.1327 306.313 63.6999 306.439 64.3923ZM311.668 71.5471C310.825 71.4882 310.113 71.2466 309.531 70.8224C308.953 70.3947 308.526 69.8313 308.248 69.1322C307.971 68.4331 307.862 67.6472 307.923 66.7743C307.985 65.8901 308.206 65.1214 308.586 64.4683C308.966 63.8114 309.471 63.3133 310.103 62.9739C310.734 62.6345 311.46 62.4935 312.28 62.5508C312.941 62.5971 313.522 62.7611 314.022 63.0429C314.523 63.3209 314.917 63.6902 315.204 64.1507C315.494 64.6115 315.649 65.1369 315.669 65.7268L314.019 65.6115C313.957 65.197 313.774 64.8311 313.469 64.5136C313.169 64.1964 312.748 64.0189 312.208 63.9812C311.736 63.9481 311.313 64.0439 310.941 64.2684C310.572 64.4895 310.273 64.8217 310.045 65.2652C309.817 65.7049 309.681 66.2346 309.638 66.8543C309.593 67.4891 309.651 68.0438 309.812 68.5182C309.972 68.9927 310.219 69.3688 310.553 69.6466C310.891 69.9246 311.299 70.0803 311.779 70.1139C312.1 70.1364 312.395 70.0981 312.664 69.9992C312.937 69.8968 313.17 69.7403 313.364 69.5298C313.561 69.3196 313.706 69.0601 313.8 68.7515L315.449 68.8669C315.349 69.4256 315.131 69.9154 314.794 70.3361C314.457 70.7568 314.023 71.0758 313.491 71.293C312.963 71.5105 312.355 71.5952 311.668 71.5471ZM317.069 71.7482L317.678 63.0422L319.316 63.1568L319.219 64.5397L319.31 64.5461C319.501 64.0886 319.806 63.7398 320.226 63.4995C320.649 63.2557 321.116 63.1516 321.626 63.1873C321.732 63.1947 321.856 63.2072 321.999 63.2248C322.146 63.2427 322.261 63.2602 322.343 63.2773L322.23 64.8984C322.163 64.8747 322.043 64.8455 321.871 64.8106C321.699 64.772 321.526 64.7467 321.352 64.7345C320.952 64.7065 320.589 64.7665 320.263 64.9147C319.942 65.0593 319.68 65.2745 319.478 65.5603C319.276 65.8423 319.162 66.1723 319.135 66.5502L318.763 71.8667L317.069 71.7482ZM326.623 72.5929C325.765 72.5329 325.039 72.298 324.445 71.8881C323.855 71.4747 323.415 70.9219 323.125 70.2295C322.84 69.5337 322.729 68.7342 322.792 67.8311C322.854 66.9393 323.076 66.165 323.456 65.5081C323.84 64.8515 324.345 64.3533 324.973 64.0137C325.604 63.6743 326.324 63.5329 327.133 63.5895C327.624 63.6238 328.094 63.7383 328.544 63.9331C328.993 64.1278 329.389 64.4118 329.732 64.785C330.074 65.1583 330.331 65.6301 330.504 66.2003C330.677 66.7668 330.736 67.4449 330.681 68.2347L330.639 68.8355L323.718 68.3515L323.807 67.0819L329.067 67.4497C329.098 67.0038 329.035 66.6026 328.878 66.2461C328.721 65.8857 328.485 65.594 328.17 65.3707C327.859 65.1477 327.484 65.0209 327.046 64.9902C326.57 64.9569 326.146 65.045 325.774 65.2545C325.407 65.4604 325.114 65.7437 324.895 66.1043C324.68 66.4614 324.557 66.8572 324.527 67.2917L324.458 68.2836C324.417 68.8655 324.484 69.3677 324.66 69.79C324.839 70.2127 325.106 70.5446 325.462 70.7859C325.817 71.0234 326.242 71.1594 326.737 71.1941C327.059 71.2165 327.355 71.1917 327.626 71.1195C327.897 71.0435 328.135 70.9197 328.341 70.748C328.546 70.5763 328.71 70.358 328.831 70.0931L330.415 70.4943C330.253 70.9577 329.994 71.3553 329.636 71.6872C329.283 72.0157 328.85 72.2607 328.337 72.4223C327.829 72.5804 327.257 72.6373 326.623 72.5929ZM335.99 73.2479C335.133 73.1879 334.407 72.953 333.813 72.5432C333.223 72.1298 332.783 71.5769 332.493 70.8846C332.208 70.1887 332.097 69.3893 332.16 68.4862C332.222 67.5944 332.443 66.8201 332.823 66.1632C333.207 65.5065 333.713 65.0084 334.34 64.6687C334.972 64.3294 335.692 64.188 336.5 64.2445C336.992 64.2789 337.462 64.3934 337.912 64.5881C338.361 64.7828 338.757 65.0668 339.099 65.4401C339.442 65.8134 339.699 66.2851 339.872 66.8554C340.045 67.4219 340.104 68.1 340.049 68.8897L340.007 69.4905L333.086 69.0066L333.175 67.737L338.435 68.1048C338.466 67.6589 338.403 67.2577 338.245 66.9011C338.088 66.5408 337.852 66.249 337.538 66.0258C337.227 65.8028 336.852 65.6759 336.414 65.6453C335.938 65.612 335.514 65.7001 335.142 65.9095C334.775 66.1154 334.481 66.3987 334.263 66.7593C334.048 67.1164 333.925 67.5122 333.895 67.9468L333.825 68.9387C333.785 69.5206 333.852 70.0227 334.028 70.4451C334.207 70.8677 334.474 71.1997 334.829 71.4409C335.185 71.6784 335.61 71.8145 336.105 71.8491C336.426 71.8716 336.722 71.8467 336.993 71.7745C337.264 71.6985 337.503 71.5747 337.708 71.403C337.914 71.2314 338.077 71.0131 338.198 70.7481L339.782 71.1494C339.621 71.6127 339.361 72.0104 339.004 72.3423C338.651 72.6707 338.218 72.9157 337.705 73.0774C337.197 73.2355 336.625 73.2923 335.99 73.2479ZM343.674 68.4142L343.313 73.5834L341.618 73.4649L342.227 64.7589L343.854 64.8726L343.755 66.2896L343.862 66.2972C344.095 65.8502 344.434 65.5018 344.881 65.252C345.331 65.0025 345.883 64.9006 346.537 64.9463C347.13 64.9878 347.641 65.1489 348.069 65.4294C348.498 65.7062 348.818 66.0969 349.03 66.6015C349.241 67.1062 349.322 67.7174 349.272 68.4354L348.884 73.973L347.19 73.8545L347.563 68.5209C347.607 67.8899 347.477 67.3853 347.173 67.0071C346.869 66.6251 346.43 66.4141 345.856 66.3739C345.463 66.3464 345.108 66.407 344.79 66.5557C344.475 66.7046 344.218 66.9372 344.018 67.2535C343.821 67.5663 343.707 67.9532 343.674 68.4142ZM45.1687 71.9581C44.311 71.8981 43.5851 71.6632 42.991 71.2533C42.401 70.8399 41.9612 70.2871 41.6717 69.5948C41.3862 68.8989 41.275 68.0994 41.3381 67.1963C41.4005 66.3046 41.6217 65.5302 42.0018 64.8733C42.3857 64.2167 42.8913 63.7185 43.5188 63.3789C44.1501 63.0396 44.8701 62.8981 45.6787 62.9547C46.1699 62.989 46.6403 63.1036 47.09 63.2983C47.5396 63.493 47.9355 63.777 48.2778 64.1503C48.62 64.5235 48.8775 64.9953 49.0502 65.5655C49.2233 66.132 49.2822 66.8101 49.2269 67.5999L49.1849 68.2007L42.2643 67.7167L42.3531 66.4471L47.613 66.8149C47.6442 66.369 47.5811 65.9678 47.4238 65.6113C47.2667 65.251 47.0308 64.9592 46.7161 64.7359C46.4051 64.5129 46.0305 64.3861 45.5921 64.3555C45.116 64.3222 44.6922 64.4102 44.3206 64.6197C43.9531 64.8256 43.6599 65.1089 43.441 65.4695C43.2262 65.8266 43.1036 66.2224 43.0732 66.657L43.0038 67.6488C42.9631 68.2308 43.0305 68.7329 43.206 69.1553C43.3853 69.5779 43.6526 69.9098 44.0079 70.1511C44.3634 70.3886 44.7886 70.5247 45.2836 70.5593C45.6048 70.5817 45.9008 70.5569 46.1717 70.4847C46.4428 70.4087 46.6812 70.2849 46.8868 70.1132C47.0925 69.9415 47.2558 69.7232 47.3769 69.4583L48.9607 69.8595C48.7992 70.3229 48.5398 70.7205 48.1824 71.0525C47.8291 71.3809 47.3962 71.6259 46.8837 71.7875C46.3752 71.9456 45.8035 72.0025 45.1687 71.9581ZM58.6037 63.9724L54.8378 72.4577L53.0241 72.3308L50.4701 63.4036L52.2895 63.5309L54.0259 70.3846L54.1166 70.3909L56.7843 63.8452L58.6037 63.9724ZM63.0314 73.2072C62.1736 73.1472 61.4477 72.9123 60.8536 72.5024C60.2636 72.089 59.8238 71.5362 59.5343 70.8438C59.2488 70.148 59.1376 69.3485 59.2008 68.4454C59.2631 67.5536 59.4844 66.7793 59.8644 66.1224C60.2483 65.4658 60.754 64.9676 61.3815 64.628C62.0127 64.2886 62.7327 64.1472 63.5413 64.2038C64.0325 64.2381 64.503 64.3526 64.9526 64.5474C65.4022 64.7421 65.7982 65.0261 66.1404 65.3993C66.4826 65.7726 66.7401 66.2444 66.9129 66.8146C67.0859 67.3811 67.1448 68.0592 67.0896 68.849L67.0476 69.4498L60.127 68.9658L60.2157 67.6962L65.4756 68.064C65.5068 67.6181 65.4437 67.2169 65.2864 66.8604C65.1293 66.5001 64.8934 66.2083 64.5787 65.985C64.2677 65.762 63.8931 65.6352 63.4548 65.6045C62.9787 65.5713 62.5548 65.6593 62.1832 65.8688C61.8157 66.0747 61.5225 66.358 61.3036 66.7186C61.0888 67.0757 60.9662 67.4715 60.9358 67.906L60.8665 68.8979C60.8258 69.4798 60.8932 69.982 61.0687 70.4043C61.248 70.827 61.5152 71.1589 61.8705 71.4002C62.226 71.6377 62.6513 71.7737 63.1463 71.8084C63.4674 71.8308 63.7635 71.806 64.0343 71.7338C64.3054 71.6578 64.5438 71.534 64.7495 71.3623C64.9551 71.1906 65.1185 70.9723 65.2395 70.7074L66.8233 71.1086C66.6618 71.572 66.4024 71.9696 66.0451 72.3015C65.6917 72.63 65.2588 72.875 64.7463 73.0366C64.2378 73.1947 63.6662 73.2516 63.0314 73.2072ZM68.6592 73.4241L69.268 64.7181L70.906 64.8327L70.8093 66.2157L70.9 66.222C71.0915 65.7645 71.3969 65.4157 71.8161 65.1754C72.2395 64.9316 72.7062 64.8275 73.2163 64.8632C73.3221 64.8706 73.4466 64.8831 73.5896 64.9007C73.7365 64.9186 73.8511 64.9361 73.9334 64.9532L73.82 66.5743C73.7533 66.5506 73.6339 66.5214 73.4616 66.4866C73.2897 66.448 73.1168 66.4226 72.943 66.4104C72.5424 66.3824 72.1794 66.4425 71.8539 66.5906C71.5324 66.7352 71.2705 66.9504 71.0683 67.2362C70.8663 67.5183 70.7521 67.8482 70.7257 68.2261L70.3539 73.5426L68.6592 73.4241ZM77.7334 62.3939L77.0078 70.6532L75.4377 70.5434L75.8686 62.2635L77.7334 62.3939ZM75.9846 74.0446C75.671 74.0227 75.4104 73.8943 75.2027 73.6596C74.9954 73.421 74.9046 73.1451 74.9303 72.8317C74.9482 72.5216 75.0762 72.2648 75.3145 72.0612C75.553 71.8539 75.8291 71.7611 76.1427 71.7831C76.4488 71.8045 76.7055 71.9344 76.9129 72.173C77.1205 72.4077 77.2154 72.6802 77.1975 72.9903C77.1792 73.1978 77.111 73.3848 76.9931 73.5512C76.8792 73.7141 76.7336 73.8407 76.5564 73.9308C76.3793 74.0209 76.1887 74.0589 75.9846 74.0446Z" fill="#050505" fill-opacity="0.88"/>
</g>
<defs>
<filter id="filter0_d_8015_85848" x="0" y="-26" width="392.167" height="237.657" filterUnits="userSpaceOnUse" color-interpolation-filters="sRGB">
<feFlood flood-opacity="0" result="BackgroundImageFix"/>
<feColorMatrix in="SourceAlpha" type="matrix" values="0 0 0 0 0 0 0 0 0 0 0 0 0 0 0 0 0 0 127 0" result="hardAlpha"/>
<feOffset dy="16"/>
<feGaussianBlur stdDeviation="5"/>
<feComposite in2="hardAlpha" operator="out"/>
<feColorMatrix type="matrix" values="0 0 0 0 0 0 0 0 0 0 0 0 0 0 0 0 0 0 0.12 0"/>
<feBlend mode="normal" in2="BackgroundImageFix" result="effect1_dropShadow_8015_85848"/>
<feBlend mode="normal" in="SourceGraphic" in2="effect1_dropShadow_8015_85848" result="shape"/>
</filter>
</defs>
</svg>
